<svg width="1440" height="168" viewBox="0 0 1440 168" fill="none" xmlns="http://www.w3.org/2000/svg">
<rect x="24" width="24" height="24" fill="#F9E04B"/>
<rect x="48" width="24" height="24" fill="#F9E04B"/>
<rect x="72" width="24" height="24" fill="#F9E04B"/>
<rect x="168" width="24" height="24" fill="#F9E04B"/>
<rect x="312" width="24" height="24" fill="#F9E04B"/>
<rect x="360" width="24" height="24" fill="#F9E04B"/>
<rect x="408" width="24" height="24" fill="#F9E04B"/>
<rect x="456" width="24" height="24" fill="#F9E04B"/>
<rect x="648" width="24" height="24" fill="#F9E04B"/>
<rect x="696" width="24" height="24" fill="#F9E04B"/>
<rect x="792" width="24" height="24" fill="#F9E04B"/>
<rect x="888" width="24" height="24" fill="#F9E04B"/>
<rect x="1032" width="24" height="24" fill="#F9E04B"/>
<rect x="1080" width="24" height="24" fill="#F9E04B"/>
<rect x="1128" width="24" height="24" fill="#F9E04B"/>
<rect x="1176" width="24" height="24" fill="#F9E04B"/>
<rect x="1272" width="24" height="24" fill="#F9E04B"/>
<rect x="1368" width="24" height="24" fill="#F9E04B"/>
<rect x="96" width="24" height="24" fill="#F9E04B"/>
<rect x="120" width="24" height="24" fill="#F9E04B"/>
<rect x="144" width="24" height="24" fill="#F9E04B"/>
<rect x="192" width="24" height="24" fill="#F9E04B"/>
<rect x="216" width="24" height="24" fill="#F9E04B"/>
<rect x="240" width="24" height="24" fill="#F9E04B"/>
<rect x="264" width="24" height="24" fill="#F9E04B"/>
<rect x="288" width="24" height="24" fill="#F9E04B"/>
<rect x="336" width="24" height="24" fill="#F9E04B"/>
<rect x="384" width="24" height="24" fill="#F9E04B"/>
<rect x="432" width="24" height="24" fill="#F9E04B"/>
<rect x="480" width="24" height="24" fill="#F9E04B"/>
<rect x="504" width="24" height="24" fill="#F9E04B"/>
<rect x="552" width="24" height="24" fill="#F9E04B"/>
<rect x="600" width="24" height="24" fill="#F9E04B"/>
<rect x="528" width="24" height="24" fill="#F9E04B"/>
<rect x="576" width="24" height="24" fill="#F9E04B"/>
<rect x="624" width="24" height="24" fill="#F9E04B"/>
<rect x="672" width="24" height="24" fill="#F9E04B"/>
<rect x="720" width="24" height="24" fill="#F9E04B"/>
<rect x="744" width="24" height="24" fill="#F9E04B"/>
<rect x="768" width="24" height="24" fill="#F9E04B"/>
<rect x="816" width="24" height="24" fill="#F9E04B"/>
<rect x="840" width="24" height="24" fill="#F9E04B"/>
<rect x="864" width="24" height="24" fill="#F9E04B"/>
<rect x="912" width="24" height="24" fill="#F9E04B"/>
<rect x="936" width="24" height="24" fill="#F9E04B"/>
<rect x="960" width="24" height="24" fill="#F9E04B"/>
<rect x="984" width="24" height="24" fill="#F9E04B"/>
<rect x="1008" width="24" height="24" fill="#F9E04B"/>
<rect x="1056" width="24" height="24" fill="#F9E04B"/>
<rect x="1104" width="24" height="24" fill="#F9E04B"/>
<rect x="1152" width="24" height="24" fill="#F9E04B"/>
<rect x="1200" width="24" height="24" fill="#F9E04B"/>
<rect x="1248" width="24" height="24" fill="#F9E04B"/>
<rect x="1224" width="24" height="24" fill="#F9E04B"/>
<rect x="1296" width="24" height="24" fill="#F9E04B"/>
<rect x="1320" width="24" height="24" fill="#F9E04B"/>
<rect x="1344" width="24" height="24" fill="#F9E04B"/>
<rect x="1392" width="24" height="24" fill="#F9E04B"/>
<rect width="24" height="24" fill="#F9E04B"/>
<rect x="24" y="24" width="24" height="24" fill="#F9E04B"/>
<rect x="120" y="24" width="24" height="24" fill="#F9E04B"/>
<rect x="48" y="24" width="24" height="24" fill="#F9E04B"/>
<rect x="72" y="24" width="24" height="24" fill="#F9E04B"/>
<rect x="168" y="24" width="24" height="24" fill="#F9E04B"/>
<rect x="192" y="24" width="24" height="24" fill="#F9E04B"/>
<rect x="312" y="24" width="24" height="24" fill="#F9E04B"/>
<rect x="360" y="24" width="24" height="24" fill="#F9E04B"/>
<rect x="408" y="24" width="24" height="24" fill="#F9E04B"/>
<rect x="456" y="24" width="24" height="24" fill="#F9E04B"/>
<rect x="648" y="24" width="24" height="24" fill="#F9E04B"/>
<rect x="696" y="24" width="24" height="24" fill="#F9E04B"/>
<rect x="792" y="24" width="24" height="24" fill="#F9E04B"/>
<rect x="888" y="24" width="24" height="24" fill="#F9E04B"/>
<rect x="1032" y="24" width="24" height="24" fill="#F9E04B"/>
<rect x="1128" y="24" width="24" height="24" fill="#F9E04B"/>
<rect x="1176" y="24" width="24" height="24" fill="#F9E04B"/>
<rect x="1272" y="24" width="24" height="24" fill="#F9E04B"/>
<rect x="1368" y="24" width="24" height="24" fill="#F9E04B"/>
<rect x="96" y="24" width="24" height="24" fill="#F9E04B"/>
<rect x="216" y="24" width="24" height="24" fill="#F9E04B"/>
<rect x="240" y="24" width="24" height="24" fill="#F9E04B"/>
<rect x="264" y="24" width="24" height="24" fill="#F9E04B"/>
<rect x="336" y="24" width="24" height="24" fill="#F9E04B"/>
<rect x="384" y="24" width="24" height="24" fill="#F9E04B"/>
<rect x="432" y="24" width="24" height="24" fill="#F9E04B"/>
<rect x="480" y="24" width="24" height="24" fill="#F9E04B"/>
<rect x="504" y="24" width="24" height="24" fill="#F9E04B"/>
<rect x="552" y="24" width="24" height="24" fill="#F9E04B"/>
<rect x="600" y="24" width="24" height="24" fill="#F9E04B"/>
<rect x="528" y="24" width="24" height="24" fill="#F9E04B"/>
<rect x="576" y="24" width="24" height="24" fill="#F9E04B"/>
<rect x="624" y="24" width="24" height="24" fill="#F9E04B"/>
<rect x="720" y="24" width="24" height="24" fill="#F9E04B"/>
<rect x="744" y="24" width="24" height="24" fill="#F9E04B"/>
<rect x="768" y="24" width="24" height="24" fill="#F9E04B"/>
<rect x="816" y="24" width="24" height="24" fill="#F9E04B"/>
<rect x="864" y="24" width="24" height="24" fill="#F9E04B"/>
<rect x="912" y="24" width="24" height="24" fill="#F9E04B"/>
<rect x="936" y="24" width="24" height="24" fill="#F9E04B"/>
<rect x="960" y="24" width="24" height="24" fill="#F9E04B"/>
<rect x="984" y="24" width="24" height="24" fill="#F9E04B"/>
<rect x="1008" y="24" width="24" height="24" fill="#F9E04B"/>
<rect x="1056" y="24" width="24" height="24" fill="#F9E04B"/>
<rect x="1080" y="24" width="24" height="24" fill="#F9E04B"/>
<rect x="1080" y="48" width="24" height="24" fill="#F9E04B"/>
<rect x="1104" y="24" width="24" height="24" fill="#F9E04B"/>
<rect x="1152" y="24" width="24" height="24" fill="#F9E04B"/>
<rect x="1200" y="24" width="24" height="24" fill="#F9E04B"/>
<rect x="1248" y="24" width="24" height="24" fill="#F9E04B"/>
<rect x="1224" y="24" width="24" height="24" fill="#F9E04B"/>
<rect x="1296" y="24" width="24" height="24" fill="#F9E04B"/>
<rect x="1392" y="24" width="24" height="24" fill="#F9E04B"/>
<rect x="1416" y="24" width="24" height="24" fill="#F9E04B"/>
<rect y="48" width="24" height="24" fill="#F9E04B"/>
<rect x="120" y="48" width="24" height="24" fill="#F9E04B"/>
<rect x="24" y="48" width="24" height="24" fill="#F9E04B"/>
<rect x="168" y="48" width="24" height="24" fill="#F9E04B"/>
<rect x="312" y="48" width="24" height="24" fill="#F9E04B"/>
<rect x="360" y="48" width="24" height="24" fill="#F9E04B"/>
<rect x="408" y="48" width="24" height="24" fill="#F9E04B"/>
<rect x="456" y="48" width="24" height="24" fill="#F9E04B"/>
<rect x="648" y="48" width="24" height="24" fill="#F9E04B"/>
<rect x="696" y="48" width="24" height="24" fill="#F9E04B"/>
<rect x="888" y="48" width="24" height="24" fill="#F9E04B"/>
<rect x="1032" y="48" width="24" height="24" fill="#F9E04B"/>
<rect x="1104" y="48" width="24" height="24" fill="#F9E04B"/>
<rect x="1272" y="48" width="24" height="24" fill="#F9E04B"/>
<rect x="1368" y="48" width="24" height="24" fill="#F9E04B"/>
<rect x="144" y="48" width="24" height="24" fill="#F9E04B"/>
<rect x="192" y="48" width="24" height="24" fill="#F9E04B"/>
<rect x="216" y="48" width="24" height="24" fill="#F9E04B"/>
<rect x="240" y="48" width="24" height="24" fill="#F9E04B"/>
<rect x="264" y="48" width="24" height="24" fill="#F9E04B"/>
<rect x="288" y="24" width="24" height="24" fill="#F9E04B"/>
<rect x="336" y="48" width="24" height="24" fill="#F9E04B"/>
<rect x="432" y="48" width="24" height="24" fill="#F9E04B"/>
<rect x="480" y="48" width="24" height="24" fill="#F9E04B"/>
<rect x="504" y="48" width="24" height="24" fill="#F9E04B"/>
<rect x="576" y="48" width="24" height="24" fill="#F9E04B"/>
<rect x="528" y="48" width="24" height="24" fill="#F9E04B"/>
<rect x="624" y="48" width="24" height="24" fill="#F9E04B"/>
<rect x="672" y="48" width="24" height="24" fill="#F9E04B"/>
<rect x="720" y="48" width="24" height="24" fill="#F9E04B"/>
<rect x="768" y="48" width="24" height="24" fill="#F9E04B"/>
<rect x="768" y="72" width="24" height="24" fill="#F9E04B"/>
<rect x="816" y="48" width="24" height="24" fill="#F9E04B"/>
<rect x="792" y="48" width="24" height="24" fill="#F9E04B"/>
<rect x="840" y="24" width="24" height="24" fill="#F9E04B"/>
<rect x="840" y="48" width="24" height="24" fill="#F9E04B"/>
<rect x="912" y="48" width="24" height="24" fill="#F9E04B"/>
<rect x="936" y="48" width="24" height="24" fill="#F9E04B"/>
<rect x="984" y="48" width="24" height="24" fill="#F9E04B"/>
<rect x="1008" y="48" width="24" height="24" fill="#F9E04B"/>
<rect x="1056" y="48" width="24" height="24" fill="#F9E04B"/>
<rect x="1152" y="48" width="24" height="24" fill="#F9E04B"/>
<rect x="1176" y="48" width="24" height="24" fill="#F9E04B"/>
<rect x="1248" y="48" width="24" height="24" fill="#F9E04B"/>
<rect x="1224" y="48" width="24" height="24" fill="#F9E04B"/>
<rect x="1296" y="48" width="24" height="24" fill="#F9E04B"/>
<rect x="1344" y="48" width="24" height="24" fill="#F9E04B"/>
<rect x="1392" y="48" width="24" height="24" fill="#F9E04B"/>
<rect x="1416" y="48" width="24" height="24" fill="#F9E04B"/>
<rect y="96" width="24" height="24" fill="#F9E04B"/>
<rect x="24" y="72" width="24" height="24" fill="#F9E04B"/>
<rect x="72" y="48" width="24" height="24" fill="#F9E04B"/>
<rect x="168" y="72" width="24" height="24" fill="#F9E04B"/>
<rect x="360" y="72" width="24" height="24" fill="#F9E04B"/>
<rect x="360" y="96" width="24" height="24" fill="#F9E04B"/>
<rect x="408" y="72" width="24" height="24" fill="#F9E04B"/>
<rect x="456" y="72" width="24" height="24" fill="#F9E04B"/>
<rect x="648" y="72" width="24" height="24" fill="#F9E04B"/>
<rect x="696" y="72" width="24" height="24" fill="#F9E04B"/>
<rect x="888" y="72" width="24" height="24" fill="#F9E04B"/>
<rect x="1032" y="72" width="24" height="24" fill="#F9E04B"/>
<rect x="1080" y="72" width="24" height="24" fill="#F9E04B"/>
<rect x="1128" y="72" width="24" height="24" fill="#F9E04B"/>
<rect x="1152" y="96" width="24" height="24" fill="#F9E04B"/>
<rect x="1176" y="72" width="24" height="24" fill="#F9E04B"/>
<rect x="1272" y="72" width="24" height="24" fill="#F9E04B"/>
<rect x="1368" y="72" width="24" height="24" fill="#F9E04B"/>
<rect x="144" y="96" width="24" height="24" fill="#F9E04B"/>
<rect x="216" y="72" width="24" height="24" fill="#F9E04B"/>
<rect x="216" y="96" width="24" height="24" fill="#F9E04B"/>
<rect x="240" y="72" width="24" height="24" fill="#F9E04B"/>
<rect x="240" y="96" width="24" height="24" fill="#F9E04B"/>
<rect x="264" y="72" width="24" height="24" fill="#F9E04B"/>
<rect x="384" y="72" width="24" height="24" fill="#F9E04B"/>
<rect x="432" y="72" width="24" height="24" fill="#F9E04B"/>
<rect x="528" y="72" width="24" height="24" fill="#F9E04B"/>
<rect x="552" y="48" width="24" height="24" fill="#F9E04B"/>
<rect x="624" y="72" width="24" height="24" fill="#F9E04B"/>
<rect x="600" y="96" width="24" height="24" fill="#F9E04B"/>
<rect x="672" y="72" width="24" height="24" fill="#F9E04B"/>
<rect x="720" y="72" width="24" height="24" fill="#F9E04B"/>
<rect x="864" y="72" width="24" height="24" fill="#F9E04B"/>
<rect x="912" y="96" width="24" height="24" fill="#F9E04B"/>
<rect x="912" y="72" width="24" height="24" fill="#F9E04B"/>
<rect x="960" y="72" width="24" height="24" fill="#F9E04B"/>
<rect x="984" y="72" width="24" height="24" fill="#F9E04B"/>
<rect x="1056" y="72" width="24" height="24" fill="#F9E04B"/>
<rect x="1104" y="72" width="24" height="24" fill="#F9E04B"/>
<rect x="1152" y="72" width="24" height="24" fill="#F9E04B"/>
<rect x="1200" y="72" width="24" height="24" fill="#F9E04B"/>
<rect x="1248" y="72" width="24" height="24" fill="#F9E04B"/>
<rect x="1296" y="72" width="24" height="24" fill="#F9E04B"/>
<rect x="1392" y="72" width="24" height="24" fill="#F9E04B"/>
<rect x="1416" y="72" width="24" height="24" fill="#F9E04B"/>
<rect x="1416" y="96" width="24" height="24" fill="#F9E04B"/>
<rect x="120" y="120" width="24" height="24" fill="#F9E04B"/>
<rect x="240" y="120" width="24" height="24" fill="#F9E04B"/>
<rect x="408" y="96" width="24" height="24" fill="#F9E04B"/>
<rect x="432" y="96" width="24" height="24" fill="#F9E04B"/>
<rect x="456" y="96" width="24" height="24" fill="#F9E04B"/>
<rect x="456" y="120" width="24" height="24" fill="#F9E04B"/>
<rect x="696" y="96" width="24" height="24" fill="#F9E04B"/>
<rect x="768" y="120" width="24" height="24" fill="#F9E04B"/>
<rect x="840" y="120" width="24" height="24" fill="#F9E04B"/>
<rect x="912" y="144" width="24" height="24" fill="#F9E04B"/>
<rect x="1080" y="144" width="24" height="24" fill="#F9E04B"/>
<rect x="816" y="96" width="24" height="24" fill="#F9E04B"/>
<rect x="888" y="120" width="24" height="24" fill="#F9E04B"/>
<rect x="1032" y="96" width="24" height="24" fill="#F9E04B"/>
<rect x="1008" y="120" width="24" height="24" fill="#F9E04B"/>
<rect x="1080" y="96" width="24" height="24" fill="#F9E04B"/>
<rect x="1176" y="96" width="24" height="24" fill="#F9E04B"/>
<rect x="1248" y="96" width="24" height="24" fill="#F9E04B"/>
<rect x="1272" y="120" width="24" height="24" fill="#F9E04B"/>
<rect x="96" y="96" width="24" height="24" fill="#F9E04B"/>
<rect x="312" y="120" width="24" height="24" fill="#F9E04B"/>
<rect x="576" y="120" width="24" height="24" fill="#F9E04B"/>
<rect x="1416" y="144" width="24" height="24" fill="#F9E04B"/>
<rect x="1344" y="96" width="24" height="24" fill="#F9E04B"/>
<rect x="480" y="120" width="24" height="24" fill="#F9E04B"/>
<rect x="672" y="96" width="24" height="24" fill="#F9E04B"/>
<rect x="720" y="96" width="24" height="24" fill="#F9E04B"/>
<rect x="720" y="120" width="24" height="24" fill="#F9E04B"/>
<rect x="888" y="96" width="24" height="24" fill="#F9E04B"/>
<rect x="1056" y="120" width="24" height="24" fill="#F9E04B"/>
<rect x="1104" y="120" width="24" height="24" fill="#F9E04B"/>
<rect x="1200" y="96" width="24" height="24" fill="#F9E04B"/>
<rect x="1176" y="120" width="24" height="24" fill="#F9E04B"/>
<rect x="1224" y="120" width="24" height="24" fill="#F9E04B"/>
<rect x="1392" y="96" width="24" height="24" fill="#F9E04B"/>
</svg>
