<svg width="283" height="242" viewBox="0 0 283 242" fill="none" xmlns="http://www.w3.org/2000/svg">
<g clip-path="url(#clip0_401_21362)">
<rect opacity="0.25" x="134.001" y="235" width="149" height="149" transform="rotate(-90 134.001 235)" fill="#FFE87A"/>
<rect opacity="0.25" x="20.001" y="119" width="119" height="119" rx="52.7738" transform="rotate(-90 20.001 119)" fill="#FFE87A"/>
<path opacity="0.25" d="M133.812 218.386C125.841 225.223 116.603 230.422 106.623 233.688C96.643 236.954 86.1176 238.222 75.6476 237.421C65.1777 236.619 54.9681 233.763 45.602 229.015C36.2358 224.268 27.8964 217.722 21.06 209.752C14.2235 201.781 9.0239 192.543 5.75796 182.563C2.49201 172.583 1.22373 162.058 2.02551 151.588C2.82728 141.118 5.68341 130.908 10.4308 121.542C15.1783 112.176 21.724 103.836 29.6943 97L55.7237 127.347C51.7385 130.765 48.4657 134.934 46.0919 139.618C43.7182 144.301 42.2902 149.405 41.8893 154.64C41.4884 159.875 42.1225 165.138 43.7555 170.128C45.3885 175.118 47.9883 179.737 51.4065 183.722C54.8247 187.708 58.9944 190.98 63.6775 193.354C68.3606 195.728 73.4653 197.156 78.7003 197.557C83.9353 197.958 89.198 197.324 94.1879 195.691C99.1778 194.058 103.797 191.458 107.782 188.04L133.812 218.386Z" fill="#FFE87A"/>
</g>
<defs>
<clipPath id="clip0_401_21362">
<rect width="283" height="242" fill="white"/>
</clipPath>
</defs>
</svg>
