<svg width="276" height="56" viewBox="0 0 276 56" fill="none" xmlns="http://www.w3.org/2000/svg">
<rect width="56" height="56" rx="10" fill="white"/>
<path fill-rule="evenodd" clip-rule="evenodd" d="M38 29V31H36C34.2761 31 32.6228 31.6848 31.4038 32.9038C30.1848 34.1228 29.5 35.7761 29.5 37.5C29.5 39.2239 30.1848 40.8772 31.4038 42.0962C32.6228 43.3152 34.2761 44 36 44H38H47L38 29Z" fill="#FAE04B"/>
<path fill-rule="evenodd" clip-rule="evenodd" d="M28 27V12L19 27H28ZM8 44H17H19L28 29H19H17L8 44Z" fill="#FAE04B"/>
<path fill-rule="evenodd" clip-rule="evenodd" d="M30 12H28V27H30C31.9891 27 33.8968 26.2098 35.3033 24.8033C36.7098 23.3968 37.5 21.4891 37.5 19.5C37.5 17.5109 36.7098 15.6032 35.3033 14.1967C33.8968 12.7902 31.9891 12 30 12Z" fill="#FAE04B"/>
<rect x="2" y="2" width="52" height="52" rx="8" stroke="white" stroke-width="4"/>
<rect x="9" y="29" width="33.1" height="2" fill="white"/>
<path d="M96.2258 43.999H104L89.2645 11.999H81.4443L67 43.999H74.7282L77.5 37.999H93L96.2258 43.999ZM91 31.999H80L85.5 18.999L91 31.999Z" fill="white"/>
<path d="M107 11.999V43.999C111.048 43.999 116.452 43.999 120.5 43.999C131.77 43.999 136.5 36.329 136.5 27.999C136.5 19.669 131.586 11.999 120.5 11.999H107ZM114 18.999H120.5C127.216 18.999 129.5 23.4016 129.5 27.999C129.5 32.5965 127.492 36.999 120.5 36.999H114V18.999Z" fill="white"/>
<path d="M171 11.999H163L154 35.499L145 11.999H137L150.5 43.999H157.5L171 11.999Z" fill="white"/>
<path d="M208.641 11.999V43.8625C212.689 43.8625 217.795 43.8625 221.843 43.8625C233.113 43.8625 237.851 36.0332 237.851 27.7031C237.851 19.3731 232.929 11.999 221.843 11.999H208.641ZM215.725 18.4172H221.843C228.559 18.4172 230.767 23.0147 230.767 27.6121C230.767 32.2096 228.835 37.3077 221.843 37.3077H215.725V18.4172Z" fill="white"/>
<path d="M195.726 43.999H203.5L188.765 11.999H180.944L166.5 43.999H174.228L177 37.999H192.5L195.726 43.999ZM190.5 31.999H179.5L185 18.999L190.5 31.999Z" fill="white"/>
<path d="M268.226 44H276L261.265 12H253.444L239 44H246.728L249.5 38H265L268.226 44ZM263 32H252L257.5 19L263 32Z" fill="white"/>
</svg>
