<svg width="138" height="28" viewBox="0 0 138 28" fill="none" xmlns="http://www.w3.org/2000/svg">
<rect width="28" height="28" rx="5" fill="#182048"/>
<rect width="28" height="28" rx="5" fill="#182048"/>
<path fill-rule="evenodd" clip-rule="evenodd" d="M14 13H10L14 6H15C16.0609 6 17.0783 6.36875 17.8284 7.02513C18.5786 7.6815 19 8.57174 19 9.5C19 10.4283 18.5786 11.3185 17.8284 11.9749C17.0783 12.6313 16.0609 13 15 13H14ZM8.5 22H4L8.2 15H13.7L9.5 22H8.5ZM23.5 22L18.5 15C17.5717 15 16.6815 15.3688 16.0251 16.0252C15.3687 16.6815 15 17.5718 15 18.5C15 19.4283 15.3687 20.3185 16.0251 20.9749C16.6815 21.6313 17.5717 22 18.5 22V22L23.5 22Z" fill="#F9E04B"/>
<rect x="1" y="1" width="26" height="26" rx="4" stroke="#182048" stroke-width="2"/>
<path d="M48.1129 22H52L44.6323 6H40.7222L33.5 22H37.3641L38.75 19H46.5L48.1129 22ZM45.5 16H40L42.75 9.5L45.5 16Z" fill="#182048"/>
<path d="M53.5 6V22C55.524 22 58.226 22 60.25 22C65.8851 22 68.25 18.165 68.25 14C68.25 9.83499 65.7931 6 60.25 6H53.5ZM57 9.5H60.25C63.6081 9.5 64.75 11.7013 64.75 14C64.75 16.2987 63.7461 18.5 60.25 18.5H57V9.5Z" fill="#182048"/>
<path d="M85.5 6H81.5L77 17.75L72.5 6H68.5L75.25 22H78.75L85.5 6Z" fill="#182048"/>
<path d="M104.32 6V21.9317C106.344 21.9317 108.897 21.9317 110.921 21.9317C116.557 21.9317 118.926 18.0171 118.926 13.8521C118.926 9.68706 116.465 6 110.921 6H104.32ZM107.862 9.2091H110.921C114.28 9.2091 115.384 11.5078 115.384 13.8065C115.384 16.1053 114.418 18.6543 110.921 18.6543H107.862V9.2091Z" fill="#182048"/>
<path d="M97.8629 22H101.75L94.3823 6H90.4722L83.25 22H87.1141L88.5 19H96.25L97.8629 22ZM95.25 16H89.75L92.5 9.5L95.25 16Z" fill="#182048"/>
<path d="M134.113 22.0005H138L130.632 6.00049H126.722L119.5 22.0005H123.364L124.75 19.0005H132.5L134.113 22.0005ZM131.5 16.0005H126L128.75 9.50049L131.5 16.0005Z" fill="#182048"/>
</svg>
