<svg width="32" height="32" viewBox="0 0 32 32" fill="none" xmlns="http://www.w3.org/2000/svg">
<path d="M15.9997 2.00001C12.8481 1.99972 9.78962 3.06903 7.32473 5.03301C7.21749 5.01304 7.10879 5.002 6.99973 5.00001C6.46929 5.00001 5.96059 5.21072 5.58551 5.58579C5.21044 5.96087 4.99973 6.46957 4.99973 7.00001C5.00173 7.10907 5.01277 7.21777 5.03273 7.32501C3.07226 9.81076 2.01312 12.8881 2.02849 16.0539C2.04385 19.2196 3.1328 22.2866 5.1173 24.7532C7.10179 27.2198 9.86442 28.9401 12.9535 29.633C16.0426 30.3258 19.2753 29.9501 22.1232 28.5673C24.971 27.1846 27.2655 24.8765 28.6315 22.0206C29.9974 19.1646 30.354 15.9297 29.643 12.8448C28.932 9.75983 27.1953 7.00739 24.7171 5.03747C22.2388 3.06755 19.1655 1.9967 15.9997 2.00001ZM15.9997 28C13.7787 28.0042 11.6003 27.3908 9.70789 26.2283C7.81546 25.0657 6.28355 23.3999 5.28332 21.4169C4.2831 19.4339 3.85397 17.2118 4.04388 14.9989C4.23379 12.7861 5.03525 10.6696 6.35873 8.88601C6.72871 9.02324 7.13312 9.03727 7.51173 8.92601L8.97473 10.389C7.64186 12.0493 6.94183 14.1289 6.99937 16.2573C7.05691 18.3856 7.8683 20.4244 9.28893 22.0102C10.7096 23.5961 12.6471 24.626 14.7563 24.9164C16.8656 25.2068 19.0094 24.7389 20.8057 23.596C21.1893 23.8855 21.6646 24.0266 22.144 23.9933C22.6234 23.9599 23.0745 23.7544 23.4143 23.4146C23.7541 23.0748 23.9596 22.6236 23.993 22.1442C24.0263 21.6648 23.8852 21.1896 23.5957 20.806C24.5123 19.3706 24.9993 17.7031 24.9993 16C24.9993 14.2969 24.5123 12.6294 23.5957 11.194C23.8852 10.8104 24.0263 10.3352 23.993 9.85578C23.9596 9.37639 23.7541 8.9252 23.4143 8.5854C23.0745 8.24561 22.6234 8.0401 22.144 8.00676C21.6646 7.97342 21.1893 8.11451 20.8057 8.40401C19.228 7.39731 17.3741 6.91093 15.5054 7.01336C13.6366 7.1158 11.847 7.80189 10.3887 8.97501L8.92573 7.51201C9.03706 7.13341 9.02303 6.72898 8.88573 6.35901C10.4117 5.23287 12.183 4.48472 14.0542 4.17598C15.9255 3.86724 17.8432 4.00671 19.6501 4.58294C21.4569 5.15918 23.1014 6.15574 24.4483 7.49081C25.7953 8.82588 26.8065 10.4614 27.3987 12.2631C27.991 14.0647 28.1475 15.9812 27.8554 17.8551C27.5633 19.729 26.8309 21.5068 25.7183 23.0428C24.6058 24.5787 23.1448 25.8288 21.4554 26.6906C19.766 27.5523 17.8962 28.0011 15.9997 28ZM15.9997 14C16.3953 14 16.782 14.1173 17.1109 14.3371C17.4398 14.5568 17.6961 14.8692 17.8475 15.2346C17.9989 15.6001 18.0385 16.0022 17.9613 16.3902C17.8841 16.7782 17.6936 17.1345 17.4139 17.4142C17.1342 17.6939 16.7779 17.8844 16.3899 17.9616C16.0019 18.0387 15.5998 17.9991 15.2344 17.8478C14.8689 17.6964 14.5566 17.44 14.3368 17.1111C14.117 16.7823 13.9997 16.3956 13.9997 16C14.0003 15.4697 14.2111 14.9613 14.5861 14.5864C14.9611 14.2114 15.4695 14.0005 15.9997 14ZM19.4327 13.981L21.4877 11.926C21.5625 11.9453 21.6383 11.9603 21.7147 11.971C22.5509 13.1481 23.0001 14.5562 23.0001 16C23.0001 17.4439 22.5509 18.8519 21.7147 20.029C21.6383 20.0397 21.5625 20.0547 21.4877 20.074L19.4327 18.019C19.8035 17.4108 19.9996 16.7123 19.9996 16C19.9996 15.2877 19.8035 14.5892 19.4327 13.981ZM20.0287 10.285C20.0393 10.3615 20.0544 10.4373 20.0737 10.512L18.0187 12.567C17.4105 12.1963 16.712 12.0001 15.9997 12.0001C15.2874 12.0001 14.5889 12.1963 13.9807 12.567L11.8157 10.4C12.9949 9.51082 14.4266 9.02024 15.9033 8.99938C17.38 8.97853 18.8249 9.42848 20.0287 10.284V10.285ZM12.5667 13.981C12.1993 14.5906 12.0034 15.2882 11.9997 16C12.001 17.0605 12.4229 18.0771 13.1728 18.827C13.9226 19.5768 14.9393 19.9987 15.9997 20C16.7115 19.9963 17.4091 19.8004 18.0187 19.433L20.0737 21.488C20.0544 21.5627 20.0393 21.6385 20.0287 21.715C18.669 22.6789 17.0096 23.1251 15.3499 22.9731C13.6902 22.821 12.1394 22.0808 10.9775 20.8859C9.81554 19.691 9.11894 18.1202 9.01336 16.4568C8.90779 14.7935 9.40019 13.1472 10.4017 11.815L12.5667 13.981Z" fill="#B49444"/>
</svg>
