<svg width="763" height="369" viewBox="0 0 763 369" fill="none" xmlns="http://www.w3.org/2000/svg">
<path opacity="0.25" fill-rule="evenodd" clip-rule="evenodd" d="M451.902 345.929L208.874 268.714L216.141 245.84L193.268 238.573L200.838 214.747L223.711 222.014L230.979 199.141L253.852 206.408L261.119 183.535L504.147 260.75L496.88 283.624L489.613 306.497L512.486 313.764L504.916 337.591L482.043 330.323L459.169 323.056L451.902 345.929Z" fill="white"/>
<path d="M408.801 290.105L413.903 274.048L417.814 275.291L414.755 284.921L421.406 276.432L424.562 277.435L425.109 288.236L428.176 278.583L432.087 279.826L426.986 295.883L422.365 294.415L421.391 281.867L413.399 291.566L408.801 290.105ZM396.737 275.847C396.854 275.481 396.998 275.107 397.169 274.725L406.021 277.538C406.212 276.725 406.154 276.035 405.848 275.468C405.521 274.911 405.03 274.528 404.374 274.32C403.398 274.01 402.589 274.206 401.946 274.908L397.783 273.586C398.263 272.815 398.892 272.183 399.669 271.692C400.431 271.195 401.292 270.89 402.252 270.775C403.212 270.66 404.21 270.767 405.247 271.097C406.498 271.494 407.526 272.115 408.332 272.958C409.139 273.802 409.659 274.807 409.893 275.973C410.127 277.138 410.033 278.384 409.612 279.711C409.19 281.038 408.555 282.112 407.707 282.933C406.843 283.75 405.838 284.27 404.693 284.494C403.547 284.717 402.341 284.628 401.076 284.226C399.841 283.834 398.825 283.226 398.029 282.402C397.233 281.578 396.721 280.601 396.493 279.471C396.249 278.336 396.33 277.128 396.737 275.847ZM400.413 278.148C400.2 278.819 400.259 279.425 400.591 279.967C400.922 280.509 401.431 280.889 402.117 281.107C402.773 281.315 403.39 281.302 403.969 281.066C404.532 280.825 404.978 280.371 405.308 279.703L400.413 278.148ZM395.281 275.183C394.864 276.494 394.255 277.568 393.452 278.404C392.634 279.235 391.713 279.782 390.689 280.045C389.666 280.307 388.628 280.271 387.576 279.937C386.737 279.67 386.03 279.253 385.456 278.684C384.866 278.11 384.467 277.463 384.259 276.743L382.377 282.667L378.466 281.424L383.844 264.498L387.755 265.741L387.174 267.57C387.733 267.077 388.414 266.756 389.217 266.608C390.004 266.455 390.848 266.522 391.747 266.808C392.799 267.142 393.668 267.712 394.352 268.517C395.032 269.337 395.465 270.322 395.654 271.474C395.822 272.635 395.698 273.871 395.281 275.183ZM385.727 272.122C385.417 273.098 385.447 273.955 385.817 274.694C386.171 275.428 386.737 275.918 387.515 276.165C388.293 276.412 389.046 276.341 389.774 275.951C390.482 275.572 390.991 274.894 391.301 273.918C391.611 272.942 391.591 272.08 391.242 271.331C390.872 270.592 390.298 270.099 389.521 269.852C388.743 269.605 387.998 269.679 387.285 270.074C386.557 270.463 386.037 271.146 385.727 272.122ZM374.341 276.991C375.028 277.209 375.529 277.587 375.845 278.124C376.141 278.671 376.195 279.242 376.006 279.837C375.812 280.447 375.439 280.882 374.886 281.143C374.313 281.414 373.683 281.441 372.997 281.223C372.326 281.009 371.842 280.629 371.546 280.082C371.23 279.545 371.169 278.971 371.363 278.361C371.552 277.767 371.933 277.334 372.506 277.063C373.058 276.802 373.67 276.778 374.341 276.991ZM372.819 275.047L376.874 262.283L380.785 263.526L376.73 276.289L372.819 275.047ZM372.553 267.962C372.137 269.273 371.527 270.347 370.724 271.183C369.906 272.014 368.985 272.561 367.962 272.824C366.938 273.086 365.9 273.05 364.848 272.716C363.948 272.43 363.221 271.997 362.667 271.418C362.097 270.834 361.723 270.187 361.546 269.476L360.972 271.283L357.061 270.04L361.116 257.277L365.027 258.519L364.453 260.326C365.023 259.853 365.71 259.542 366.512 259.394C367.299 259.241 368.143 259.308 369.042 259.594C370.079 259.923 370.94 260.49 371.624 261.295C372.304 262.116 372.738 263.101 372.926 264.252C373.094 265.414 372.97 266.65 372.553 267.962ZM363 264.901C362.69 265.877 362.719 266.734 363.089 267.473C363.444 268.207 364.01 268.697 364.787 268.944C365.565 269.191 366.318 269.12 367.046 268.73C367.754 268.351 368.263 267.673 368.573 266.697C368.884 265.721 368.864 264.859 368.514 264.11C368.144 263.371 367.571 262.878 366.793 262.631C366.015 262.384 365.27 262.458 364.557 262.853C363.829 263.242 363.31 263.925 363 264.901ZM340.644 259.838C339.777 259.344 339.178 258.642 338.846 257.731C338.51 256.835 338.489 255.922 338.785 254.991C339.211 253.65 340.023 252.732 341.22 252.24C342.397 251.758 343.825 251.783 345.502 252.316L352.982 254.692L347.88 270.749L340.652 268.453C339.02 267.934 337.866 267.156 337.188 266.118C336.496 265.076 336.353 263.914 336.76 262.633C337.06 261.688 337.561 260.982 338.263 260.517C338.95 260.047 339.743 259.82 340.644 259.838ZM346.033 263.011L343.471 262.197C342.83 261.993 342.299 261.975 341.876 262.143C341.433 262.322 341.125 262.685 340.95 263.234C340.776 263.783 340.818 264.258 341.077 264.659C341.32 265.056 341.762 265.356 342.402 265.559L344.964 266.373L346.033 263.011ZM345.185 255.69C344.53 255.482 343.98 255.467 343.538 255.645C343.075 255.834 342.754 256.211 342.574 256.775C342.395 257.339 342.445 257.842 342.725 258.283C342.989 258.72 343.449 259.042 344.105 259.25L346.941 260.151L348.067 256.606L345.185 255.69ZM321.017 258.588L325.072 245.825L328.983 247.068L328.431 248.806C329.007 248.368 329.694 248.082 330.491 247.95C331.269 247.827 332.069 247.897 332.893 248.159C333.869 248.469 334.662 248.956 335.274 249.62C335.881 250.3 336.259 251.117 336.409 252.071C336.559 253.025 336.457 254.059 336.104 255.172L333.735 262.629L329.846 261.393L332.048 254.463C332.319 253.609 332.309 252.875 332.017 252.262C331.725 251.649 331.205 251.223 330.458 250.986C329.696 250.744 329.018 250.789 328.426 251.121C327.833 251.453 327.402 252.046 327.13 252.9L324.928 259.831L321.017 258.588ZM304.941 253.48L318.928 237.199L323.136 238.537L318.145 244.102L319.42 258.081L315.051 256.693L314.637 247.772L309.173 254.825L304.941 253.48ZM293.229 242.96C293.345 242.594 293.489 242.22 293.661 241.838L302.513 244.651C302.704 243.838 302.646 243.148 302.339 242.581C302.013 242.024 301.521 241.641 300.866 241.433C299.89 241.123 299.08 241.319 298.438 242.021L294.275 240.698C294.755 239.928 295.383 239.296 296.161 238.805C296.923 238.308 297.784 238.003 298.744 237.888C299.703 237.773 300.702 237.88 301.739 238.21C302.989 238.607 304.017 239.228 304.824 240.071C305.63 240.915 306.15 241.92 306.384 243.085C306.618 244.251 306.525 245.497 306.103 246.824C305.682 248.15 305.047 249.225 304.198 250.046C303.334 250.863 302.329 251.383 301.184 251.607C300.038 251.83 298.833 251.741 297.567 251.339C296.332 250.947 295.316 250.339 294.521 249.515C293.725 248.691 293.212 247.714 292.984 246.584C292.74 245.449 292.822 244.241 293.229 242.96ZM296.905 245.261C296.691 245.932 296.751 246.538 297.082 247.08C297.414 247.622 297.922 248.002 298.609 248.22C299.264 248.428 299.881 248.415 300.46 248.179C301.023 247.938 301.47 247.484 301.799 246.816L296.905 245.261ZM285.739 245.038C285.059 245.594 284.312 245.961 283.5 246.139C282.683 246.333 281.855 246.297 281.017 246.03L282.332 241.89L283.407 242.232C284.383 242.542 285.183 242.561 285.806 242.289C286.425 242.032 286.902 241.378 287.236 240.326L289.118 234.401L293.03 235.644L288.974 248.407L285.063 247.165L285.739 245.038Z" fill="#FFFBEA"/>
<path opacity="0.25" fill-rule="evenodd" clip-rule="evenodd" d="M671.924 77.8067L530.678 247.779L549.136 263.118L533.797 281.577L518.459 300.035L537.686 316.013L553.025 297.555L571.484 312.894L556.145 331.352L574.603 346.691L731.188 158.26L712.729 142.921L728.068 124.463L709.61 109.124L724.949 90.6651L743.407 106.004L761.866 121.343L762.155 120.995L687.552 59.0002L687.262 59.3482L705.721 74.6871L690.382 93.1456L671.924 77.8067Z" fill="white"/>
<path d="M570.025 268.398L572.646 270.576L576.159 266.349L578.595 268.374L575.083 272.601L577.925 274.963L581.898 270.182L584.427 272.284L577.831 280.221L564.873 269.453L571.469 261.516L573.998 263.617L570.025 268.398ZM586.794 248.256C587.857 246.976 589.089 246.283 590.488 246.177C591.897 246.058 593.291 246.572 594.669 247.717L600.686 252.717L598.079 255.855L592.486 251.208C591.821 250.655 591.162 250.409 590.509 250.47C589.854 250.508 589.27 250.834 588.759 251.449C588.248 252.065 588.028 252.704 588.101 253.368C588.171 254.009 588.539 254.605 589.203 255.158L594.796 259.805L592.189 262.943L586.596 258.296C585.931 257.743 585.272 257.498 584.619 257.558C583.963 257.596 583.38 257.922 582.869 258.537C582.357 259.153 582.138 259.792 582.211 260.456C582.281 261.097 582.649 261.694 583.313 262.246L588.906 266.893L586.283 270.05L575.983 261.491L578.606 258.334L579.898 259.408C579.734 258.73 579.743 258.031 579.926 257.309C580.097 256.578 580.454 255.886 580.996 255.234C581.64 254.458 582.379 253.907 583.212 253.58C584.056 253.241 584.928 253.155 585.83 253.322C585.56 252.494 585.503 251.625 585.657 250.713C585.812 249.801 586.191 248.982 586.794 248.256ZM596.984 246.658C595.926 245.778 595.161 244.81 594.688 243.751C594.226 242.68 594.065 241.621 594.207 240.574C594.349 239.527 594.773 238.579 595.479 237.73C596.082 237.004 596.756 236.493 597.501 236.197C598.257 235.889 598.997 235.786 599.723 235.89L598.265 234.678L600.887 231.522L611.187 240.081L608.564 243.237L607.106 242.025C607.33 242.732 607.36 243.485 607.195 244.284C607.041 245.071 606.662 245.827 606.058 246.553C605.363 247.39 604.514 247.974 603.51 248.305C602.495 248.626 601.418 248.657 600.281 248.399C599.141 248.118 598.043 247.537 596.984 246.658ZM603.414 238.958C602.627 238.303 601.821 238.008 600.998 238.073C600.185 238.125 599.517 238.465 598.996 239.093C598.474 239.72 598.257 240.445 598.344 241.266C598.429 242.065 598.866 242.792 599.653 243.446C600.441 244.101 601.247 244.407 602.073 244.365C602.896 244.3 603.569 243.954 604.09 243.326C604.612 242.699 604.824 241.98 604.727 241.171C604.639 240.35 604.202 239.612 603.414 238.958ZM603.187 226.576C602.727 227.13 602.189 227.453 601.572 227.543C600.953 227.612 600.404 227.447 599.924 227.048C599.432 226.639 599.169 226.129 599.135 225.519C599.1 224.886 599.312 224.292 599.772 223.739C600.222 223.197 600.756 222.892 601.375 222.824C601.991 222.733 602.546 222.892 603.038 223.301C603.518 223.7 603.776 224.216 603.811 224.849C603.845 225.459 603.637 226.035 603.187 226.576ZM605.561 225.897L615.861 234.456L613.238 237.613L602.938 229.053L605.561 225.897ZM606.879 217.477L620.538 228.828L617.916 231.984L604.256 220.633L606.879 217.477ZM625.233 196.817L638.191 207.585L635.568 210.741L627.797 204.284L633.16 213.639L631.043 216.187L620.83 212.63L628.62 219.103L625.997 222.26L613.039 211.492L616.137 207.763L628.13 211.581L622.15 200.527L625.233 196.817ZM634.541 201.463C633.482 200.584 632.717 199.615 632.244 198.556C631.782 197.486 631.622 196.427 631.764 195.38C631.906 194.333 632.329 193.385 633.035 192.536C633.638 191.81 634.313 191.298 635.058 191.002C635.813 190.694 636.554 190.592 637.279 190.695L635.821 189.483L638.444 186.327L648.744 194.886L646.121 198.042L644.663 196.831C644.887 197.537 644.917 198.29 644.752 199.089C644.597 199.876 644.218 200.632 643.615 201.359C642.919 202.195 642.07 202.779 641.067 203.111C640.051 203.432 638.975 203.463 637.837 203.204C636.698 202.923 635.599 202.343 634.541 201.463ZM640.971 193.763C640.183 193.108 639.378 192.814 638.554 192.878C637.741 192.931 637.074 193.271 636.552 193.898C636.031 194.526 635.814 195.25 635.901 196.072C635.986 196.87 636.422 197.597 637.21 198.251C637.997 198.906 638.804 199.212 639.629 199.17C640.453 199.105 641.125 198.759 641.647 198.132C642.168 197.504 642.38 196.786 642.283 195.977C642.196 195.155 641.758 194.417 640.971 193.763ZM644.834 182.129C644.575 181.289 644.516 180.46 644.656 179.64C644.784 178.81 645.129 178.057 645.691 177.38L649.032 180.157L648.311 181.024C647.657 181.812 647.338 182.545 647.356 183.226C647.361 183.895 647.788 184.583 648.637 185.289L653.418 189.262L650.795 192.418L640.495 183.859L643.118 180.702L644.834 182.129ZM662.74 178.044L655.813 177.592L660.132 181.182L657.509 184.338L643.85 172.987L646.473 169.831L654.022 176.104L652.424 169.503L655.661 165.608L657.271 174.186L665.991 174.13L662.74 178.044ZM669.897 158.616C670.192 158.862 670.484 159.136 670.774 159.439L664.837 166.582C665.518 167.065 666.179 167.271 666.82 167.2C667.459 167.107 667.999 166.796 668.438 166.267C669.093 165.479 669.216 164.655 668.807 163.796L671.598 160.436C672.132 161.171 672.48 161.991 672.644 162.896C672.817 163.789 672.776 164.702 672.521 165.634C672.267 166.567 671.791 167.451 671.096 168.288C670.258 169.297 669.296 170.016 668.211 170.446C667.125 170.876 665.999 170.98 664.831 170.758C663.663 170.536 662.544 169.981 661.473 169.091C660.402 168.201 659.646 167.209 659.204 166.114C658.772 165.006 658.668 163.879 658.892 162.734C659.116 161.588 659.652 160.505 660.501 159.483C661.329 158.487 662.275 157.775 663.337 157.347C664.4 156.919 665.498 156.812 666.631 157.026C667.774 157.227 668.863 157.757 669.897 158.616ZM666.382 161.156C665.84 160.706 665.256 160.533 664.629 160.636C664.003 160.74 663.459 161.068 662.999 161.622C662.559 162.151 662.34 162.728 662.341 163.353C662.352 163.965 662.605 164.55 663.099 165.106L666.382 161.156ZM678.844 153.219L681.52 155.443L680.186 157.049C679.235 158.194 678.216 158.856 677.131 159.036C676.033 159.205 674.85 158.763 673.583 157.71L669.485 154.305L668.442 155.56L665.821 153.382L666.864 152.127L664.354 150.041L666.977 146.884L669.487 148.97L671.205 146.903L673.826 149.081L672.108 151.148L676.243 154.584C676.55 154.84 676.833 154.95 677.091 154.915C677.35 154.88 677.622 154.69 677.908 154.345L678.844 153.219ZM685.887 139.374C686.182 139.619 686.474 139.893 686.764 140.196L680.828 147.34C681.508 147.822 682.169 148.028 682.81 147.958C683.449 147.865 683.989 147.553 684.429 147.024C685.083 146.237 685.206 145.413 684.797 144.553L687.589 141.194C688.122 141.928 688.471 142.748 688.634 143.654C688.807 144.547 688.766 145.459 688.512 146.392C688.257 147.324 687.782 148.209 687.086 149.046C686.248 150.055 685.286 150.774 684.201 151.204C683.116 151.633 681.989 151.737 680.821 151.516C679.653 151.294 678.534 150.738 677.463 149.849C676.393 148.959 675.636 147.967 675.194 146.871C674.763 145.763 674.659 144.637 674.882 143.491C675.106 142.346 675.642 141.263 676.491 140.241C677.319 139.244 678.265 138.532 679.328 138.105C680.39 137.677 681.488 137.57 682.621 137.784C683.765 137.985 684.853 138.515 685.887 139.374ZM682.372 141.914C681.83 141.464 681.246 141.291 680.62 141.394C679.993 141.497 679.449 141.826 678.989 142.38C678.55 142.909 678.33 143.486 678.331 144.11C678.342 144.723 678.595 145.308 679.089 145.864L682.372 141.914ZM686.78 131.653C686.52 130.813 686.461 129.984 686.601 129.164C686.729 128.334 687.074 127.581 687.637 126.904L690.978 129.68L690.257 130.548C689.602 131.335 689.284 132.069 689.301 132.749C689.306 133.419 689.733 134.107 690.582 134.813L695.363 138.785L692.74 141.942L682.44 133.383L685.063 130.226L686.78 131.653Z" fill="#FFFBEA"/>
<path opacity="0.25" fill-rule="evenodd" clip-rule="evenodd" d="M619.112 12.2319L402.298 140.667L414.53 161.316L393.881 173.548L373.232 185.78L398.205 227.938L418.854 215.706L431.086 236.355L647.901 107.92L635.669 87.2711L656.318 75.0392L644.086 54.3902L664.735 42.1583L651.993 20.6489L631.344 32.8808L619.112 12.2319Z" fill="white"/>
<path d="M459.566 169.534L454.156 172.739L454.805 175.813L451.109 178.003L447.767 160.4L451.856 157.978L465.687 169.367L461.95 171.581L459.566 169.534ZM457.043 167.347L452.102 163.104L453.47 169.463L457.043 167.347ZM465.162 156.317C465.188 155.576 465.406 154.861 465.816 154.172C466.226 153.483 466.837 152.897 467.649 152.416C468.599 151.854 469.602 151.585 470.659 151.61C471.715 151.635 472.728 151.965 473.699 152.599C474.683 153.224 475.526 154.129 476.227 155.313C476.929 156.497 477.321 157.678 477.405 158.855C477.495 160.011 477.301 161.065 476.823 162.017C476.338 162.956 475.62 163.706 474.67 164.269C473.872 164.742 473.065 164.997 472.25 165.033C471.449 165.062 470.721 164.916 470.067 164.597L474.275 171.7L470.744 173.792L460.665 156.777L464.196 154.685L465.162 156.317ZM472.634 157.441C472.112 156.56 471.457 156.019 470.668 155.817C469.884 155.593 469.135 155.693 468.419 156.117C467.717 156.533 467.269 157.142 467.075 157.945C466.895 158.74 467.066 159.578 467.588 160.459C468.109 161.34 468.762 161.892 469.546 162.116C470.343 162.332 471.093 162.232 471.795 161.816C472.497 161.4 472.945 160.791 473.139 159.988C473.324 159.171 473.156 158.322 472.634 157.441ZM479.383 147.892C479.409 147.152 479.627 146.437 480.037 145.748C480.447 145.058 481.058 144.473 481.87 143.992C482.82 143.429 483.823 143.161 484.88 143.186C485.936 143.211 486.949 143.54 487.92 144.174C488.904 144.8 489.747 145.705 490.448 146.889C491.15 148.073 491.542 149.253 491.626 150.431C491.716 151.587 491.522 152.641 491.045 153.593C490.559 154.531 489.841 155.282 488.892 155.845C488.093 156.318 487.286 156.572 486.471 156.609C485.67 156.637 484.942 156.492 484.288 156.173L488.496 163.276L484.965 165.368L474.886 148.353L478.417 146.261L479.383 147.892ZM486.855 149.017C486.334 148.136 485.678 147.594 484.889 147.392C484.105 147.169 483.356 147.269 482.64 147.693C481.938 148.109 481.49 148.718 481.296 149.521C481.116 150.316 481.287 151.153 481.809 152.034C482.331 152.916 482.983 153.468 483.767 153.692C484.564 153.908 485.314 153.808 486.016 153.392C486.718 152.976 487.166 152.366 487.36 151.564C487.545 150.747 487.377 149.898 486.855 149.017ZM496.388 143.37C495.686 142.187 495.291 141.017 495.201 139.861C495.126 138.697 495.33 137.646 495.816 136.708C496.301 135.769 497.019 135.018 497.969 134.456C498.726 134.007 499.508 133.758 500.315 133.708C501.136 133.649 501.884 133.782 502.56 134.107L499.392 128.759L502.923 126.667L511.975 141.948L508.444 144.039L507.465 142.387C507.461 143.134 507.247 143.856 506.823 144.553C506.413 145.242 505.802 145.827 504.99 146.308C504.04 146.871 503.037 147.14 501.981 147.115C500.916 147.076 499.892 146.743 498.908 146.118C497.929 145.47 497.089 144.554 496.388 143.37ZM505.031 138.278C504.509 137.397 503.85 136.849 503.052 136.633C502.269 136.409 501.526 136.505 500.824 136.921C500.122 137.337 499.674 137.946 499.48 138.749C499.292 139.53 499.459 140.361 499.981 141.242C500.502 142.123 501.159 142.682 501.951 142.92C502.748 143.136 503.498 143.036 504.2 142.62C504.902 142.204 505.343 141.599 505.523 140.804C505.717 140.001 505.553 139.159 505.031 138.278ZM522.074 127.931C522.27 128.262 522.453 128.618 522.624 129L514.633 133.734C515.112 134.417 515.665 134.833 516.293 134.982C516.926 135.109 517.538 134.998 518.13 134.647C519.011 134.125 519.404 133.39 519.308 132.443L523.066 130.217C523.322 131.088 523.374 131.978 523.224 132.885C523.087 133.784 522.742 134.63 522.189 135.423C521.635 136.216 520.891 136.889 519.955 137.444C518.826 138.112 517.678 138.467 516.512 138.507C515.345 138.547 514.249 138.266 513.224 137.665C512.198 137.064 511.33 136.164 510.621 134.967C509.912 133.769 509.533 132.58 509.484 131.4C509.45 130.212 509.731 129.116 510.326 128.112C510.922 127.108 511.791 126.268 512.933 125.591C514.048 124.931 515.178 124.578 516.323 124.532C517.467 124.486 518.537 124.754 519.533 125.336C520.542 125.91 521.389 126.775 522.074 127.931ZM517.91 129.143C517.552 128.537 517.06 128.177 516.435 128.064C515.81 127.951 515.187 128.078 514.568 128.445C513.976 128.795 513.575 129.265 513.366 129.854C513.171 130.434 513.213 131.07 513.491 131.76L517.91 129.143ZM530.892 126.278L528.522 116.58L532.28 114.354L535.017 128.298L530.66 130.879L519.747 121.778L523.525 119.54L530.892 126.278ZM548.137 112.492C548.333 112.823 548.516 113.179 548.687 113.561L540.696 118.295C541.175 118.978 541.728 119.394 542.356 119.543C542.989 119.67 543.601 119.559 544.193 119.208C545.074 118.686 545.467 117.951 545.371 117.004L549.129 114.778C549.384 115.649 549.437 116.539 549.287 117.446C549.15 118.345 548.805 119.191 548.251 119.984C547.698 120.777 546.954 121.45 546.017 122.005C544.889 122.673 543.741 123.028 542.575 123.068C541.408 123.108 540.312 122.827 539.286 122.226C538.261 121.625 537.393 120.726 536.684 119.528C535.974 118.33 535.596 117.141 535.547 115.961C535.513 114.773 535.793 113.677 536.389 112.673C536.985 111.669 537.854 110.829 538.996 110.152C540.111 109.492 541.241 109.139 542.386 109.093C543.53 109.047 544.6 109.315 545.596 109.897C546.605 110.471 547.452 111.336 548.137 112.492ZM543.973 113.704C543.614 113.098 543.122 112.738 542.497 112.625C541.872 112.512 541.25 112.639 540.631 113.006C540.039 113.356 539.638 113.826 539.429 114.415C539.234 114.995 539.276 115.631 539.554 116.321L543.973 113.704ZM548.209 99.8414L557.26 115.122L553.729 117.213L544.678 101.933L548.209 99.8414ZM565.368 110.542C564.239 111.21 563.078 111.573 561.884 111.629C560.704 111.678 559.587 111.409 558.534 110.824C557.495 110.231 556.62 109.336 555.911 108.138C555.21 106.954 554.855 105.76 554.848 104.556C554.833 103.337 555.137 102.218 555.761 101.198C556.384 100.178 557.26 99.3335 558.388 98.6648C559.517 97.9961 560.679 97.6336 561.873 97.5772C563.067 97.5208 564.194 97.792 565.256 98.3906C566.309 98.9756 567.186 99.8599 567.887 101.044C568.589 102.228 568.94 103.433 568.941 104.66C568.948 105.864 568.633 106.981 567.996 108.009C567.373 109.029 566.497 109.873 565.368 110.542ZM563.558 107.486C564.232 107.086 564.657 106.5 564.831 105.727C565.02 104.946 564.841 104.094 564.294 103.172C563.748 102.25 563.094 101.68 562.332 101.461C561.584 101.235 560.873 101.321 560.199 101.721C559.51 102.129 559.086 102.715 558.925 103.479C558.756 104.23 558.949 105.074 559.504 106.01C560.05 106.932 560.69 107.511 561.424 107.745C562.172 107.972 562.883 107.885 563.558 107.486ZM571.052 93.5904C571.078 92.8496 571.296 92.1347 571.706 91.4455C572.116 90.7563 572.727 90.1712 573.539 89.69C574.489 89.1274 575.492 88.8586 576.548 88.8838C577.605 88.9089 578.618 89.2384 579.589 89.8722C580.573 90.4979 581.416 91.4027 582.117 92.5866C582.818 93.7705 583.211 94.9512 583.295 96.1289C583.384 97.2846 583.19 98.3386 582.713 99.2908C582.228 100.229 581.51 100.98 580.56 101.543C579.762 102.016 578.955 102.27 578.14 102.307C577.338 102.335 576.611 102.19 575.957 101.871L580.164 108.974L576.633 111.066L566.554 94.0508L570.085 91.9591L571.052 93.5904ZM578.524 94.7149C578.002 93.8339 577.347 93.2924 576.557 93.0904C575.774 92.8665 575.024 92.9665 574.308 93.3906C573.606 93.8064 573.158 94.4158 572.965 95.2188C572.784 96.0135 572.955 96.8514 573.477 97.7324C573.999 98.6134 574.652 99.1659 575.435 99.3898C576.233 99.6056 576.982 99.5056 577.684 99.0897C578.387 98.6738 578.834 98.0644 579.028 97.2615C579.214 96.4448 579.046 95.596 578.524 94.7149ZM594.939 84.7678C595.135 85.0981 595.318 85.4545 595.489 85.8369L587.498 90.5706C587.977 91.2539 588.53 91.6699 589.158 91.8189C589.791 91.946 590.404 91.8342 590.995 91.4835C591.877 90.9616 592.269 90.227 592.173 89.2798L595.931 87.0536C596.187 87.9249 596.239 88.8143 596.089 89.7217C595.952 90.621 595.607 91.4669 595.054 92.2596C594.5 93.0522 593.756 93.7258 592.82 94.2803C591.691 94.949 590.543 95.3034 589.377 95.3435C588.21 95.3836 587.114 95.103 586.089 94.5018C585.063 93.9005 584.196 93.0011 583.486 91.8035C582.777 90.6058 582.398 89.4169 582.35 88.2367C582.315 87.0484 582.596 85.9523 583.191 84.9486C583.787 83.9449 584.656 83.1046 585.799 82.4278C586.914 81.7673 588.043 81.4142 589.188 81.3685C590.332 81.3228 591.402 81.5909 592.398 82.1727C593.407 82.7464 594.254 83.6114 594.939 84.7678ZM590.775 85.9791C590.417 85.3734 589.925 85.0139 589.3 84.9007C588.675 84.7874 588.052 84.9142 587.433 85.2812C586.841 85.6318 586.441 86.1015 586.231 86.6903C586.036 87.271 586.078 87.9064 586.357 88.5968L590.775 85.9791ZM598.375 77.7954C598.412 76.9176 598.635 76.1162 599.043 75.3913C599.442 74.6527 600.02 74.0591 600.777 73.6106L602.991 77.3481L602.021 77.923C601.14 78.4449 600.593 79.029 600.381 79.6754C600.161 80.308 600.332 81.0993 600.894 82.0491L604.062 87.3972L600.531 89.4889L593.706 77.9668L597.237 75.8751L598.375 77.7954Z" fill="#FFFBEA"/>
<path opacity="0.25" fill-rule="evenodd" clip-rule="evenodd" d="M87.1684 206.032L214.215 271.669L203.199 292.992L224.521 304.008L235.537 282.685L235.541 282.687L191.018 368.865L191.014 368.863L202.03 347.541L180.708 336.525L159.385 325.509L148.369 346.831L21.3229 281.194L32.3389 259.872L11.0164 248.856L33.5074 205.322L54.8299 216.338L76.1524 227.354L87.1684 206.032Z" fill="white"/>
<path d="M81.9081 264.123L76.3216 261.237L74.0601 263.418L70.2434 261.446L83.3925 249.276L87.6144 251.457L85.297 269.224L81.4377 267.23L81.9081 264.123ZM82.424 260.824L83.4001 254.385L78.7352 258.918L82.424 260.824ZM97.7115 264.4L95.7499 263.386L91.1672 272.256L87.5211 270.373L92.1037 261.502L90.7817 260.819L92.346 257.792L93.668 258.475L93.8443 258.133C94.6007 256.669 95.5929 255.777 96.8208 255.457C98.056 255.123 99.4839 255.374 101.104 256.211C101.375 256.351 101.57 256.461 101.69 256.541L100.093 259.633C99.4186 259.23 98.8768 259.077 98.4676 259.171C98.0585 259.266 97.6924 259.626 97.3692 260.252L97.3141 260.358L99.2758 261.372L97.7115 264.4ZM105.608 268.479L103.647 267.466L99.064 276.336L95.4179 274.452L100.001 265.582L98.6785 264.899L100.243 261.871L101.565 262.554L101.741 262.213C102.497 260.749 103.49 259.857 104.718 259.537C105.953 259.203 107.381 259.454 109.001 260.291C109.271 260.431 109.467 260.541 109.587 260.621L107.99 263.713C107.315 263.31 106.774 263.156 106.364 263.251C105.955 263.346 105.589 263.706 105.266 264.332L105.211 264.438L107.173 265.452L105.608 268.479ZM111.572 266.158C110.932 265.827 110.502 265.371 110.28 264.788C110.081 264.199 110.124 263.627 110.41 263.072C110.704 262.504 111.145 262.137 111.734 261.973C112.345 261.803 112.97 261.882 113.61 262.213C114.235 262.536 114.648 262.992 114.848 263.582C115.069 264.164 115.033 264.74 114.739 265.309C114.452 265.863 114.004 266.226 113.393 266.396C112.804 266.56 112.197 266.481 111.572 266.158ZM112.745 268.331L106.598 280.229L102.952 278.345L109.099 266.447L112.745 268.331ZM121.252 267.809L113.1 283.588L109.454 281.704L117.606 265.925L121.252 267.809ZM124.575 272.876C123.935 272.545 123.505 272.089 123.284 271.506C123.084 270.917 123.127 270.345 123.414 269.79C123.708 269.222 124.149 268.855 124.738 268.692C125.348 268.521 125.973 268.601 126.613 268.931C127.239 269.254 127.651 269.71 127.851 270.3C128.072 270.882 128.036 271.458 127.742 272.027C127.456 272.581 127.007 272.944 126.397 273.114C125.808 273.278 125.201 273.199 124.575 272.876ZM125.749 275.049L119.602 286.947L115.956 285.063L122.103 273.165L125.749 275.049ZM124.817 282.077C125.448 280.855 126.23 279.899 127.163 279.21C128.109 278.528 129.109 278.144 130.162 278.058C131.215 277.972 132.232 278.182 133.213 278.689C134.051 279.122 134.695 279.671 135.145 280.335C135.608 281.007 135.867 281.708 135.922 282.439L136.792 280.754L140.438 282.638L134.291 294.536L130.645 292.652L131.515 290.968C130.874 291.338 130.145 291.529 129.329 291.54C128.527 291.558 127.707 291.35 126.868 290.917C125.902 290.418 125.149 289.713 124.61 288.805C124.078 287.882 123.816 286.837 123.825 285.671C123.854 284.497 124.185 283.3 124.817 282.077ZM133.719 286.703C134.189 285.793 134.304 284.943 134.064 284.153C133.838 283.37 133.362 282.791 132.637 282.417C131.912 282.042 131.158 281.986 130.375 282.247C129.613 282.502 128.997 283.084 128.527 283.994C128.057 284.904 127.931 285.757 128.15 286.554C128.39 287.345 128.872 287.927 129.597 288.302C130.322 288.676 131.069 288.729 131.838 288.46C132.622 288.199 133.249 287.613 133.719 286.703ZM145.371 296.343L143.774 299.435L141.919 298.476C140.597 297.793 139.731 296.941 139.322 295.92C138.921 294.884 139.099 293.634 139.855 292.17L142.301 287.436L140.851 286.687L142.415 283.659L143.865 284.408L145.363 281.508L149.009 283.392L147.511 286.292L149.899 287.526L148.335 290.554L145.947 289.32L143.479 294.096C143.296 294.451 143.249 294.751 143.338 294.996C143.428 295.24 143.672 295.465 144.07 295.671L145.371 296.343ZM160.406 300.248C160.23 300.589 160.025 300.933 159.791 301.281L151.539 297.018C151.214 297.786 151.155 298.476 151.362 299.087C151.59 299.691 152.01 300.151 152.621 300.467C153.531 300.937 154.361 300.88 155.113 300.296L158.994 302.301C158.391 302.98 157.665 303.496 156.816 303.85C155.981 304.211 155.081 304.367 154.116 304.319C153.15 304.27 152.184 303.996 151.218 303.497C150.052 302.895 149.143 302.11 148.49 301.142C147.837 300.175 147.494 299.097 147.459 297.908C147.425 296.72 147.727 295.507 148.366 294.271C149.005 293.034 149.812 292.082 150.787 291.415C151.776 290.756 152.854 290.412 154.021 290.385C155.188 290.357 156.361 290.648 157.541 291.258C158.692 291.853 159.591 292.623 160.237 293.569C160.883 294.515 161.223 295.564 161.258 296.717C161.307 297.877 161.023 299.054 160.406 300.248ZM157.17 297.36C157.493 296.735 157.537 296.127 157.302 295.537C157.066 294.947 156.629 294.487 155.989 294.157C155.378 293.841 154.767 293.751 154.157 293.886C153.561 294.028 153.045 294.401 152.607 295.003L157.17 297.36Z" fill="#FFFBEA"/>
<path opacity="0.25" fill-rule="evenodd" clip-rule="evenodd" d="M258.617 82.4252L120.666 127.086L128.059 149.919L105.225 157.311L82.3921 164.703L97.4844 211.321L120.318 203.929L127.71 226.762L265.661 182.102L258.268 159.268L281.102 151.876L273.709 129.043L296.543 121.651L303.935 144.484L311.327 167.317L311.428 167.285L281.552 75.0003L281.45 75.033L288.843 97.8663L266.009 105.258L258.617 82.4252Z" fill="white"/>
<path d="M165.233 154.862L166.244 172.243L161.518 173.774L155.545 164.053L156.312 175.459L151.585 176.989L142.331 162.276L146.51 160.923L152.593 171.845L151.67 159.253L155.963 157.863L162.48 168.644L161.032 156.222L165.233 154.862ZM182.49 159.719C182.609 160.084 182.709 160.472 182.791 160.882L173.955 163.743C174.272 164.515 174.72 165.043 175.3 165.326C175.89 165.589 176.512 165.615 177.166 165.403C178.14 165.087 178.685 164.457 178.799 163.512L182.955 162.167C183.013 163.073 182.869 163.952 182.522 164.804C182.191 165.651 181.668 166.401 180.954 167.052C180.24 167.704 179.366 168.197 178.331 168.532C177.082 168.936 175.885 169.03 174.738 168.812C173.592 168.595 172.584 168.08 171.716 167.268C170.847 166.456 170.199 165.388 169.77 164.064C169.341 162.739 169.233 161.496 169.446 160.334C169.673 159.168 170.188 158.16 170.99 157.312C171.792 156.464 172.824 155.835 174.088 155.426C175.321 155.027 176.5 154.931 177.627 155.138C178.754 155.345 179.738 155.842 180.582 156.628C181.44 157.41 182.076 158.44 182.49 159.719ZM178.162 159.985C177.945 159.315 177.544 158.856 176.959 158.608C176.375 158.36 175.74 158.347 175.055 158.569C174.4 158.781 173.906 159.151 173.573 159.679C173.254 160.203 173.155 160.832 173.276 161.567L178.162 159.985ZM187.271 153.353C187.444 152.641 187.814 151.991 188.381 151.404C188.948 150.817 189.672 150.381 190.555 150.095C191.606 149.755 192.643 149.713 193.668 149.97C194.693 150.227 195.609 150.771 196.417 151.603C197.239 152.43 197.863 153.497 198.286 154.807C198.71 156.116 198.834 157.354 198.656 158.521C198.49 159.668 198.069 160.654 197.394 161.478C196.714 162.287 195.849 162.861 194.798 163.201C193.9 163.492 193.06 163.571 192.276 163.437C191.488 163.289 190.808 162.979 190.235 162.509L190.812 164.29L186.907 165.554L181.437 148.657L185.342 147.393L187.271 153.353ZM194.313 156.093C193.998 155.119 193.478 154.446 192.752 154.076C192.037 153.685 191.284 153.618 190.492 153.874C189.716 154.125 189.145 154.621 188.779 155.362C188.429 156.098 188.411 156.953 188.727 157.927C189.042 158.901 189.557 159.583 190.272 159.974C191.003 160.36 191.756 160.427 192.532 160.176C193.309 159.925 193.88 159.429 194.245 158.688C194.606 157.932 194.629 157.067 194.313 156.093ZM207.875 158.967C206.764 159.327 205.713 159.457 204.722 159.358C203.731 159.258 202.879 158.962 202.164 158.47C201.445 157.963 200.922 157.308 200.595 156.506L204.454 155.257C204.642 155.683 204.964 155.975 205.418 156.13C205.872 156.286 206.365 156.278 206.898 156.105C207.385 155.948 207.729 155.736 207.928 155.469C208.138 155.182 208.194 154.887 208.095 154.583C207.977 154.217 207.7 154.012 207.266 153.968C206.826 153.909 206.145 153.91 205.224 153.973C204.242 154.056 203.409 154.082 202.726 154.05C202.039 154.004 201.393 153.801 200.789 153.442C200.18 153.067 199.735 152.446 199.454 151.578C199.217 150.847 199.201 150.121 199.404 149.399C199.618 148.657 200.057 147.986 200.72 147.384C201.398 146.778 202.277 146.3 203.358 145.95C204.956 145.432 206.34 145.422 207.51 145.918C208.695 146.408 209.568 147.286 210.128 148.551L206.521 149.719C206.317 149.297 206.006 149.011 205.587 148.861C205.184 148.706 204.715 148.714 204.183 148.887C203.726 149.035 203.405 149.239 203.221 149.501C203.032 149.747 202.986 150.022 203.085 150.327C203.203 150.692 203.482 150.905 203.922 150.964C204.377 151.019 205.045 151.004 205.926 150.921C206.949 150.859 207.796 150.853 208.469 150.905C209.136 150.941 209.777 151.154 210.391 151.544C211.015 151.913 211.478 152.537 211.779 153.415C212.02 154.161 212.024 154.9 211.79 155.632C211.566 156.343 211.113 156.994 210.43 157.585C209.762 158.172 208.91 158.632 207.875 158.967ZM213.004 141.566C212.319 141.788 211.691 141.772 211.122 141.519C210.562 141.246 210.187 140.813 209.994 140.219C209.797 139.61 209.848 139.039 210.146 138.505C210.454 137.951 210.951 137.564 211.636 137.342C212.306 137.125 212.92 137.153 213.48 137.426C214.049 137.679 214.432 138.11 214.63 138.719C214.822 139.312 214.764 139.886 214.455 140.44C214.157 140.974 213.673 141.349 213.004 141.566ZM215.373 142.262L219.498 155.003L215.593 156.267L211.469 143.526L215.373 142.262ZM228.585 148.403L229.657 151.714L227.67 152.357C226.255 152.815 225.04 152.83 224.027 152.401C223.009 151.957 222.246 150.952 221.738 149.384L220.097 144.315L218.544 144.817L217.495 141.575L219.047 141.072L218.042 137.967L221.947 136.703L222.952 139.808L225.509 138.98L226.559 142.223L224.002 143.051L225.657 148.165C225.781 148.546 225.961 148.79 226.198 148.899C226.434 149.007 226.766 148.992 227.192 148.854L228.585 148.403ZM241.941 140.472C242.06 140.837 242.16 141.225 242.243 141.636L233.406 144.496C233.723 145.268 234.172 145.796 234.751 146.079C235.341 146.342 235.963 146.368 236.617 146.156C237.592 145.84 238.136 145.21 238.25 144.265L242.406 142.92C242.464 143.826 242.32 144.705 241.973 145.557C241.642 146.404 241.12 147.154 240.406 147.805C239.692 148.457 238.817 148.95 237.782 149.285C236.534 149.689 235.336 149.783 234.189 149.565C233.043 149.348 232.035 148.833 231.167 148.021C230.299 147.209 229.65 146.141 229.221 144.817C228.793 143.492 228.684 142.249 228.897 141.087C229.125 139.921 229.639 138.913 230.441 138.065C231.243 137.217 232.275 136.588 233.539 136.179C234.772 135.78 235.952 135.684 237.078 135.891C238.205 136.098 239.19 136.595 240.033 137.381C240.891 138.163 241.527 139.193 241.941 140.472ZM237.613 140.738C237.396 140.068 236.995 139.609 236.411 139.361C235.826 139.113 235.191 139.1 234.506 139.322C233.851 139.534 233.357 139.904 233.024 140.432C232.706 140.956 232.607 141.585 232.727 142.32L237.613 140.738Z" fill="#FFFBEA"/>
</svg>
