<svg width="697" height="319" viewBox="0 0 697 319" fill="none" xmlns="http://www.w3.org/2000/svg">
<path opacity="0.25" fill-rule="evenodd" clip-rule="evenodd" d="M687.49 218.361L468.138 113.796L457.811 135.461L436.147 125.133L414.482 114.806L403.725 137.373L425.389 147.7L415.062 169.365L393.397 159.037L383.07 180.702L624.086 295.594L634.413 273.929L656.078 284.257L666.405 262.592L688.07 272.92L698.827 250.353L677.163 240.025L687.49 218.361Z" fill="#F8DF4B"/>
<path d="M457.201 171.914C456.089 171.384 455.179 170.728 454.47 169.947C453.761 169.166 453.308 168.294 453.111 167.332C452.928 166.376 453.06 165.393 453.506 164.383L457.449 166.262C457.239 166.853 457.227 167.379 457.415 167.841C457.609 168.288 457.973 168.639 458.508 168.894C459.057 169.156 459.549 169.239 459.983 169.145C460.425 169.037 460.753 168.759 460.966 168.311C461.145 167.936 461.163 167.563 461.02 167.194C460.892 166.831 460.677 166.481 460.378 166.143C460.092 165.812 459.658 165.384 459.076 164.858C458.238 164.086 457.581 163.401 457.105 162.801C456.629 162.202 456.308 161.5 456.142 160.694C455.977 159.888 456.121 159.009 456.576 158.056C457.25 156.64 458.29 155.78 459.694 155.474C461.105 155.154 462.634 155.387 464.28 156.172C465.955 156.97 467.113 158.019 467.753 159.316C468.4 160.599 468.418 161.973 467.809 163.437L463.801 161.527C464.006 161.022 464.008 160.553 463.807 160.12C463.612 159.673 463.255 159.326 462.735 159.078C462.288 158.864 461.868 158.815 461.476 158.93C461.092 159.03 460.793 159.304 460.579 159.752C460.345 160.243 460.394 160.736 460.725 161.23C461.057 161.725 461.638 162.365 462.468 163.151C463.292 163.952 463.935 164.648 464.397 165.241C464.874 165.84 465.198 166.535 465.37 167.326C465.543 168.118 465.412 168.968 464.978 169.878C464.565 170.745 463.966 171.425 463.181 171.919C462.41 172.42 461.506 172.681 460.469 172.7C459.432 172.72 458.342 172.458 457.201 171.914ZM479.686 174.789C479.521 175.135 479.327 175.486 479.105 175.841L470.72 171.844C470.42 172.623 470.383 173.314 470.609 173.918C470.857 174.515 471.291 174.961 471.912 175.257C472.836 175.698 473.665 175.614 474.398 175.006L478.341 176.886C477.76 177.584 477.051 178.123 476.213 178.504C475.39 178.892 474.496 179.077 473.529 179.059C472.563 179.041 471.588 178.799 470.606 178.33C469.422 177.766 468.488 177.011 467.805 176.064C467.121 175.118 466.744 174.052 466.671 172.865C466.599 171.679 466.862 170.457 467.461 169.2C468.06 167.944 468.836 166.967 469.789 166.269C470.756 165.578 471.823 165.2 472.988 165.135C474.153 165.07 475.336 165.324 476.534 165.895C477.704 166.453 478.627 167.194 479.303 168.119C479.979 169.044 480.352 170.081 480.424 171.232C480.51 172.39 480.264 173.576 479.686 174.789ZM476.359 172.007C476.662 171.371 476.687 170.762 476.432 170.18C476.178 169.598 475.726 169.152 475.076 168.842C474.455 168.546 473.842 168.476 473.236 168.63C472.645 168.792 472.141 169.18 471.723 169.797L476.359 172.007ZM487.39 173.755C488.14 173.297 488.929 173.035 489.758 172.97C490.594 172.89 491.409 173.039 492.203 173.418L490.334 177.339L489.316 176.853C488.391 176.413 487.602 176.285 486.947 176.469C486.299 176.638 485.737 177.221 485.262 178.218L482.587 183.829L478.883 182.063L484.645 169.974L488.35 171.74L487.39 173.755ZM495.456 185.71L502.188 178.337L506.131 180.216L496.078 190.26L491.507 188.081L492.98 173.948L496.945 175.838L495.456 185.71ZM510.369 180.695C509.719 180.385 509.274 179.942 509.034 179.367C508.816 178.784 508.841 178.211 509.109 177.648C509.385 177.07 509.814 176.69 510.397 176.507C511.002 176.317 511.629 176.377 512.279 176.687C512.915 176.99 513.342 177.432 513.56 178.015C513.8 178.59 513.782 179.167 513.507 179.744C513.238 180.308 512.802 180.685 512.197 180.875C511.614 181.058 511.004 180.997 510.369 180.695ZM511.611 182.829L505.849 194.918L502.144 193.152L507.907 181.063L511.611 182.829ZM510.895 189.905C511.494 188.649 512.27 187.671 513.223 186.974C514.19 186.283 515.249 185.901 516.4 185.83C517.566 185.765 518.74 186.015 519.925 186.579C521.441 187.302 522.516 188.302 523.148 189.578C523.795 190.861 523.933 192.301 523.562 193.896L519.619 192.017C519.727 190.934 519.305 190.166 518.352 189.711C517.673 189.388 517.004 189.397 516.345 189.738C515.693 190.065 515.132 190.72 514.664 191.702C514.196 192.684 514.037 193.539 514.186 194.266C514.343 194.979 514.761 195.497 515.44 195.821C516.393 196.275 517.256 196.119 518.029 195.353L521.972 197.233C520.979 198.497 519.777 199.289 518.366 199.609C516.955 199.929 515.499 199.731 513.997 199.015C512.812 198.45 511.879 197.695 511.195 196.748C510.526 195.809 510.156 194.746 510.083 193.56C510.025 192.38 510.296 191.162 510.895 189.905ZM536.453 201.85C536.288 202.196 536.094 202.547 535.872 202.902L527.488 198.905C527.188 199.684 527.151 200.375 527.377 200.979C527.624 201.576 528.058 202.022 528.679 202.318C529.604 202.759 530.432 202.675 531.165 202.067L535.108 203.947C534.527 204.645 533.818 205.184 532.981 205.565C532.158 205.953 531.263 206.138 530.297 206.12C529.33 206.102 528.356 205.86 527.374 205.391C526.189 204.827 525.256 204.071 524.572 203.125C523.889 202.179 523.511 201.113 523.439 199.926C523.366 198.739 523.629 197.518 524.228 196.261C524.827 195.005 525.603 194.028 526.556 193.33C527.524 192.639 528.59 192.261 529.756 192.196C530.921 192.131 532.103 192.385 533.302 192.956C534.472 193.514 535.394 194.255 536.07 195.18C536.746 196.105 537.12 197.142 537.192 198.293C537.278 199.451 537.032 200.636 536.453 201.85ZM533.127 199.068C533.43 198.432 533.454 197.823 533.2 197.241C532.946 196.659 532.493 196.213 531.844 195.903C531.223 195.607 530.609 195.537 530.004 195.691C529.413 195.852 528.909 196.241 528.491 196.857L533.127 199.068ZM556.964 206.629C556.544 207.51 555.956 208.222 555.201 208.766C554.452 209.295 553.552 209.584 552.501 209.633C551.45 209.681 550.303 209.409 549.061 208.817L546.765 207.722L544.162 213.182L540.458 211.416L547.708 196.207L553.709 199.068C554.922 199.646 555.847 200.345 556.485 201.163C557.123 201.981 557.476 202.858 557.544 203.794C557.612 204.731 557.418 205.675 556.964 206.629ZM550.184 205.736C550.892 206.074 551.498 206.159 552.003 205.992C552.508 205.825 552.905 205.438 553.194 204.832C553.484 204.225 553.534 203.673 553.346 203.176C553.157 202.678 552.71 202.261 552.002 201.923L549.987 200.963L548.169 204.776L550.184 205.736ZM562.7 209.656C563.45 209.198 564.24 208.936 565.069 208.87C565.905 208.79 566.72 208.939 567.514 209.318L565.645 213.239L564.627 212.754C563.702 212.313 562.913 212.185 562.258 212.369C561.61 212.539 561.048 213.122 560.573 214.118L557.898 219.73L554.194 217.964L559.956 205.875L563.661 207.641L562.7 209.656ZM569.097 225.281C567.913 224.716 566.964 223.954 566.252 222.994C565.554 222.041 565.155 220.964 565.053 219.764C564.966 218.57 565.223 217.345 565.821 216.089C566.414 214.847 567.208 213.887 568.204 213.21C569.207 212.518 570.306 212.147 571.5 212.096C572.695 212.045 573.884 212.301 575.068 212.866C576.252 213.431 577.201 214.193 577.913 215.153C578.625 216.113 579.029 217.2 579.123 218.415C579.224 219.615 578.979 220.836 578.387 222.079C577.795 223.321 576.99 224.284 575.972 224.969C574.976 225.646 573.873 226.007 572.665 226.051C571.47 226.102 570.281 225.845 569.097 225.281ZM570.625 222.074C571.333 222.412 572.056 222.437 572.795 222.152C573.549 221.873 574.156 221.249 574.617 220.282C575.079 219.314 575.188 218.453 574.944 217.699C574.716 216.952 574.247 216.41 573.54 216.072C572.818 215.728 572.094 215.702 571.37 215.995C570.652 216.273 570.059 216.904 569.591 217.886C569.13 218.853 569.006 219.707 569.221 220.448C569.449 221.195 569.918 221.737 570.625 222.074ZM584.778 228.289L591.509 220.916L595.452 222.796L585.4 232.84L580.829 230.661L582.302 216.527L586.267 218.417L584.778 228.289ZM599.69 223.274C599.04 222.964 598.596 222.522 598.356 221.946C598.137 221.364 598.162 220.791 598.431 220.227C598.706 219.65 599.135 219.269 599.719 219.087C600.324 218.896 600.951 218.956 601.601 219.266C602.236 219.569 602.663 220.012 602.882 220.595C603.122 221.17 603.104 221.746 602.829 222.324C602.56 222.887 602.123 223.264 601.519 223.454C600.935 223.637 600.326 223.577 599.69 223.274ZM600.933 225.408L595.17 237.497L591.466 235.731L597.228 223.642L600.933 225.408ZM600.227 232.463C600.819 231.221 601.57 230.241 602.479 229.522C603.403 228.81 604.39 228.395 605.44 228.275C606.49 228.155 607.513 228.332 608.51 228.807C609.304 229.186 609.947 229.696 610.439 230.338C610.945 230.987 611.251 231.683 611.358 232.425L614.033 226.814L617.737 228.58L610.095 244.612L606.391 242.846L607.217 241.113C606.595 241.525 605.876 241.75 605.061 241.787C604.26 241.83 603.434 241.649 602.582 241.243C601.585 240.768 600.803 240.085 600.235 239.194C599.674 238.288 599.379 237.252 599.35 236.086C599.342 234.913 599.634 233.705 600.227 232.463ZM609.272 236.801C609.713 235.877 609.8 235.024 609.535 234.242C609.284 233.466 608.791 232.903 608.054 232.552C607.317 232.201 606.562 232.168 605.787 232.455C605.034 232.734 604.437 233.336 603.996 234.26C603.556 235.184 603.457 236.041 603.701 236.831C603.966 237.613 604.467 238.18 605.204 238.531C605.94 238.882 606.689 238.911 607.449 238.618C608.224 238.331 608.831 237.726 609.272 236.801ZM627.362 245.186C627.196 245.532 627.003 245.883 626.78 246.238L618.396 242.241C618.096 243.02 618.059 243.711 618.285 244.315C618.532 244.912 618.967 245.358 619.588 245.654C620.512 246.094 621.341 246.011 622.073 245.403L626.016 247.283C625.436 247.981 624.726 248.52 623.889 248.901C623.066 249.288 622.172 249.473 621.205 249.456C620.239 249.438 619.264 249.195 618.282 248.727C617.098 248.163 616.164 247.407 615.481 246.461C614.797 245.515 614.419 244.449 614.347 243.262C614.274 242.075 614.538 240.854 615.137 239.597C615.736 238.341 616.512 237.363 617.465 236.666C618.432 235.975 619.499 235.597 620.664 235.532C621.829 235.467 623.011 235.72 624.21 236.292C625.38 236.849 626.303 237.591 626.979 238.516C627.654 239.44 628.028 240.478 628.1 241.629C628.186 242.787 627.94 243.972 627.362 245.186ZM624.035 242.403C624.338 241.768 624.362 241.159 624.108 240.577C623.854 239.995 623.402 239.549 622.752 239.239C622.131 238.943 621.518 238.872 620.912 239.027C620.321 239.188 619.817 239.577 619.399 240.193L624.035 242.403ZM635.065 244.152C635.815 243.694 636.605 243.432 637.434 243.367C638.27 243.286 639.085 243.436 639.879 243.814L638.01 247.736L636.992 247.25C636.067 246.81 635.278 246.681 634.623 246.865C633.974 247.035 633.413 247.618 632.938 248.615L630.263 254.226L626.558 252.46L632.321 240.371L636.026 242.137L635.065 244.152Z" fill="#EFDD8A"/>
<path opacity="0.25" fill-rule="evenodd" clip-rule="evenodd" d="M254.693 62.2177L93.1725 100.521L98.7103 123.873L75.358 129.411L52.0056 134.949L63.312 182.627L86.6644 177.089L92.2022 200.441L253.723 162.138L248.185 138.786L271.537 133.248L265.999 109.895L289.352 104.358L283.583 80.0322L260.231 85.57L254.693 62.2177Z" fill="#F8DF4B"/>
<path d="M135.734 131.694L139.622 148.087L135.628 149.034L133.297 139.203L131.962 149.903L128.74 150.668L122.713 141.688L125.05 151.543L121.057 152.49L117.169 136.096L121.886 134.978L129.178 145.236L131.04 132.807L135.734 131.694ZM140.382 141C140.065 139.661 140.035 138.427 140.293 137.297C140.567 136.163 141.075 135.22 141.818 134.469C142.561 133.717 143.469 133.214 144.543 132.959C145.462 132.741 146.308 132.738 147.081 132.949C147.871 133.157 148.524 133.52 149.042 134.038L148.604 132.193L152.597 131.246L155.687 144.277L151.694 145.224L151.257 143.379C151.011 144.079 150.583 144.698 149.971 145.238C149.375 145.774 148.617 146.151 147.699 146.369C146.64 146.62 145.61 146.576 144.609 146.238C143.604 145.885 142.725 145.263 141.971 144.373C141.229 143.463 140.7 142.339 140.382 141ZM150.149 138.709C149.913 137.712 149.446 136.993 148.749 136.55C148.068 136.103 147.33 135.973 146.536 136.162C145.742 136.35 145.133 136.799 144.709 137.508C144.297 138.197 144.209 139.04 144.446 140.037C144.682 141.033 145.143 141.762 145.828 142.225C146.525 142.668 147.27 142.795 148.064 142.607C148.858 142.419 149.459 141.972 149.868 141.267C150.292 140.558 150.385 139.705 150.149 138.709ZM160.228 131.731C160.525 130.904 160.976 130.205 161.581 129.634C162.182 129.048 162.91 128.653 163.766 128.45L164.769 132.677L163.671 132.937C162.675 133.173 161.979 133.568 161.584 134.122C161.186 134.661 161.114 135.467 161.369 136.541L162.803 142.59L158.81 143.537L155.72 130.506L159.713 129.559L160.228 131.731ZM176.995 139.224L171.729 134.701L173.025 140.166L169.032 141.113L164.934 123.832L168.927 122.885L171.192 132.436L173.882 126.199L178.809 125.031L174.942 132.854L181.946 138.05L176.995 139.224ZM194.39 127.995C194.478 128.369 194.547 128.764 194.596 129.18L185.559 131.323C185.813 132.118 186.218 132.679 186.773 133.008C187.339 133.318 187.958 133.393 188.627 133.235C189.623 132.998 190.216 132.414 190.406 131.481L194.656 130.473C194.641 131.381 194.427 132.245 194.014 133.067C193.616 133.885 193.035 134.59 192.271 135.182C191.507 135.775 190.595 136.196 189.537 136.447C188.26 136.75 187.059 136.747 185.934 136.438C184.808 136.13 183.845 135.536 183.045 134.657C182.244 133.778 181.683 132.661 181.362 131.307C181.041 129.952 181.033 128.705 181.338 127.563C181.658 126.419 182.252 125.456 183.119 124.674C183.986 123.893 185.066 123.349 186.358 123.043C187.619 122.744 188.803 122.743 189.909 123.04C191.015 123.336 191.957 123.91 192.735 124.762C193.528 125.61 194.079 126.688 194.39 127.995ZM190.054 127.914C189.891 127.229 189.529 126.739 188.965 126.445C188.402 126.151 187.771 126.087 187.07 126.253C186.401 126.412 185.879 126.741 185.504 127.241C185.145 127.738 184.995 128.357 185.056 129.099L190.054 127.914ZM204.784 129.058L205.587 132.444L203.556 132.926C202.108 133.269 200.896 133.186 199.92 132.678C198.941 132.153 198.261 131.09 197.881 129.486L196.651 124.302L195.063 124.678L194.277 121.362L195.865 120.986L195.112 117.81L199.105 116.863L199.858 120.039L202.474 119.419L203.26 122.735L200.645 123.355L201.885 128.586C201.977 128.975 202.137 129.233 202.365 129.36C202.592 129.487 202.924 129.499 203.36 129.395L204.784 129.058ZM218.733 122.222C218.822 122.596 218.891 122.991 218.94 123.407L209.903 125.55C210.157 126.345 210.562 126.906 211.117 127.235C211.683 127.545 212.301 127.62 212.971 127.462C213.967 127.225 214.56 126.641 214.75 125.708L219 124.7C218.985 125.608 218.771 126.472 218.358 127.294C217.96 128.112 217.379 128.817 216.615 129.409C215.851 130.002 214.939 130.423 213.881 130.674C212.604 130.977 211.403 130.974 210.277 130.665C209.152 130.357 208.189 129.763 207.388 128.884C206.588 128.005 206.027 126.888 205.706 125.534C205.385 124.179 205.377 122.932 205.682 121.79C206.002 120.646 206.596 119.683 207.463 118.901C208.33 118.12 209.41 117.576 210.702 117.27C211.963 116.971 213.147 116.97 214.253 117.267C215.359 117.563 216.301 118.137 217.079 118.989C217.872 119.837 218.423 120.915 218.733 122.222ZM214.398 122.141C214.235 121.456 213.872 120.966 213.309 120.672C212.746 120.378 212.115 120.314 211.414 120.48C210.745 120.639 210.222 120.969 209.848 121.468C209.489 121.965 209.339 122.584 209.4 123.326L214.398 122.141ZM224.087 116.587C224.384 115.76 224.835 115.061 225.439 114.49C226.04 113.904 226.769 113.509 227.625 113.306L228.627 117.533L227.53 117.793C226.534 118.03 225.838 118.425 225.443 118.979C225.045 119.517 224.973 120.324 225.227 121.398L226.662 127.446L222.669 128.393L219.578 115.362L223.572 114.415L224.087 116.587Z" fill="#EFDD8A"/>
<path opacity="0.25" fill-rule="evenodd" clip-rule="evenodd" d="M462.592 221.078L315.455 144.223L304.343 165.496L283.07 154.384L261.798 143.273L239.112 186.705L260.384 197.816L249.273 219.089L396.41 295.944L407.522 274.671L428.794 285.783L439.906 264.51L461.179 275.621L472.753 253.462L451.481 242.351L462.592 221.078Z" fill="#F8DF4B"/>
<path d="M321.515 208.338L315.942 205.427L313.671 207.598L309.863 205.609L323.066 193.498L327.278 195.698L324.881 213.454L321.031 211.442L321.515 208.338ZM322.046 205.041L323.051 198.607L318.366 203.119L322.046 205.041ZM337.537 204.739C338.374 205.176 339.016 205.728 339.462 206.394C339.922 207.068 340.178 207.77 340.23 208.501L341.108 206.82L344.745 208.72L338.556 220.569C337.986 221.661 337.251 222.532 336.352 223.182C335.46 223.853 334.43 224.218 333.263 224.276C332.109 224.341 330.873 224.029 329.554 223.34C327.796 222.422 326.589 221.259 325.934 219.852C325.272 218.459 325.233 217.013 325.818 215.513L329.413 217.391C329.289 217.904 329.373 218.399 329.665 218.877C329.95 219.368 330.404 219.777 331.028 220.103C331.78 220.496 332.491 220.587 333.16 220.377C333.836 220.189 334.422 219.619 334.918 218.669L335.796 216.989C335.153 217.357 334.426 217.555 333.617 217.583C332.815 217.598 331.996 217.387 331.159 216.95C330.181 216.438 329.424 215.727 328.889 214.816C328.362 213.891 328.105 212.845 328.118 211.679C328.153 210.505 328.489 209.309 329.126 208.089C329.764 206.87 330.55 205.918 331.485 205.233C332.435 204.555 333.436 204.176 334.489 204.095C335.543 204.013 336.559 204.228 337.537 204.739ZM338.007 212.755C338.481 211.848 338.6 210.998 338.364 210.207C338.142 209.423 337.669 208.842 336.946 208.464C336.222 208.086 335.468 208.026 334.684 208.285C333.921 208.536 333.302 209.115 332.828 210.023C332.354 210.931 332.224 211.783 332.439 212.582C332.676 213.373 333.155 213.958 333.879 214.335C334.602 214.713 335.349 214.769 336.119 214.504C336.904 214.246 337.533 213.663 338.007 212.755ZM355.779 221.794C355.601 222.135 355.395 222.478 355.16 222.825L346.927 218.525C346.599 219.292 346.536 219.981 346.74 220.593C346.966 221.198 347.383 221.66 347.993 221.979C348.901 222.453 349.732 222.399 350.486 221.819L354.358 223.841C353.752 224.517 353.024 225.03 352.173 225.38C351.337 225.738 350.436 225.89 349.47 225.837C348.505 225.784 347.541 225.506 346.576 225.002C345.413 224.395 344.508 223.606 343.859 222.635C343.211 221.665 342.872 220.585 342.843 219.397C342.814 218.208 343.122 216.997 343.766 215.763C344.411 214.53 345.222 213.581 346.2 212.919C347.192 212.264 348.271 211.925 349.438 211.903C350.605 211.88 351.777 212.177 352.954 212.792C354.103 213.392 354.998 214.166 355.64 215.115C356.281 216.064 356.617 217.115 356.647 218.267C356.69 219.427 356.401 220.603 355.779 221.794ZM352.556 218.893C352.882 218.269 352.929 217.661 352.696 217.07C352.463 216.479 352.028 216.017 351.389 215.684C350.78 215.365 350.169 215.272 349.559 215.404C348.962 215.544 348.444 215.914 348.004 216.515L352.556 218.893ZM368.21 220.815C369.6 221.54 370.469 222.572 370.818 223.909C371.188 225.24 370.962 226.692 370.139 228.266L366.517 235.201L362.901 233.312L366.267 226.867C366.682 226.073 366.799 225.348 366.617 224.694C366.436 224.039 365.997 223.531 365.302 223.168C364.608 222.805 363.94 222.736 363.299 222.96C362.658 223.185 362.13 223.695 361.715 224.489L358.348 230.935L354.711 229.034L360.911 217.164L364.549 219.064L363.726 220.638C364.369 220.306 365.08 220.154 365.86 220.182C366.647 220.196 367.43 220.407 368.21 220.815ZM371.634 230.32C372.279 229.086 373.09 228.138 374.068 227.475C375.06 226.82 376.132 226.478 377.285 226.448C378.452 226.426 379.617 226.718 380.78 227.326C382.269 228.104 383.306 229.142 383.891 230.44C384.491 231.746 384.576 233.19 384.148 234.771L380.276 232.749C380.424 231.671 380.03 230.887 379.094 230.398C378.427 230.05 377.758 230.035 377.087 230.352C376.423 230.655 375.84 231.289 375.336 232.253C374.832 233.218 374.642 234.066 374.765 234.798C374.895 235.516 375.294 236.049 375.96 236.397C376.896 236.886 377.764 236.762 378.565 236.025L382.436 238.047C381.398 239.274 380.169 240.021 378.747 240.29C377.325 240.558 375.877 240.307 374.402 239.536C373.239 238.929 372.333 238.14 371.685 237.17C371.051 236.207 370.719 235.131 370.69 233.942C370.675 232.761 370.99 231.554 371.634 230.32ZM400.676 237.935L384.086 251.553L380.172 249.509L386.05 244.89L387.21 230.901L391.274 233.024L390.14 241.881L396.741 235.879L400.676 237.935Z" fill="#EFDD8A"/>
<path opacity="0.25" fill-rule="evenodd" clip-rule="evenodd" d="M48 199H233V223H257V272H233H209V296H24V272H0L0 223H24H48V199Z" fill="#F8DF4B"/>
<path d="M74.7319 253.024H68.4439L67.4359 256H63.1399L69.2359 239.152H73.9879L80.0839 256H75.7399L74.7319 253.024ZM73.6759 249.856L71.5879 243.688L69.5239 249.856H73.6759ZM81.3632 249.28C81.3632 247.904 81.6192 246.696 82.1312 245.656C82.6592 244.616 83.3712 243.816 84.2672 243.256C85.1632 242.696 86.1632 242.416 87.2672 242.416C88.1472 242.416 88.9472 242.6 89.6672 242.968C90.4032 243.336 90.9792 243.832 91.3952 244.456V238.24H95.4992V256H91.3952V254.08C91.0112 254.72 90.4592 255.232 89.7392 255.616C89.0352 256 88.2112 256.192 87.2672 256.192C86.1632 256.192 85.1632 255.912 84.2672 255.352C83.3712 254.776 82.6592 253.968 82.1312 252.928C81.6192 251.872 81.3632 250.656 81.3632 249.28ZM91.3952 249.304C91.3952 248.28 91.1072 247.472 90.5312 246.88C89.9712 246.288 89.2832 245.992 88.4672 245.992C87.6512 245.992 86.9552 246.288 86.3792 246.88C85.8192 247.456 85.5392 248.256 85.5392 249.28C85.5392 250.304 85.8192 251.12 86.3792 251.728C86.9552 252.32 87.6512 252.616 88.4672 252.616C89.2832 252.616 89.9712 252.32 90.5312 251.728C91.1072 251.136 91.3952 250.328 91.3952 249.304ZM104.732 252.16L107.636 242.608H112.004L107.252 256H102.188L97.4363 242.608H101.828L104.732 252.16ZM126.596 249.088C126.596 249.472 126.572 249.872 126.524 250.288H117.236C117.3 251.12 117.564 251.76 118.028 252.208C118.508 252.64 119.092 252.856 119.78 252.856C120.804 252.856 121.516 252.424 121.916 251.56H126.284C126.06 252.44 125.652 253.232 125.06 253.936C124.484 254.64 123.756 255.192 122.876 255.592C121.996 255.992 121.012 256.192 119.924 256.192C118.612 256.192 117.444 255.912 116.42 255.352C115.396 254.792 114.596 253.992 114.02 252.952C113.444 251.912 113.156 250.696 113.156 249.304C113.156 247.912 113.436 246.696 113.996 245.656C114.572 244.616 115.372 243.816 116.396 243.256C117.42 242.696 118.596 242.416 119.924 242.416C121.22 242.416 122.372 242.688 123.38 243.232C124.388 243.776 125.172 244.552 125.732 245.56C126.308 246.568 126.596 247.744 126.596 249.088ZM122.396 248.008C122.396 247.304 122.156 246.744 121.676 246.328C121.196 245.912 120.596 245.704 119.876 245.704C119.188 245.704 118.604 245.904 118.124 246.304C117.66 246.704 117.372 247.272 117.26 248.008H122.396ZM133.105 244.84C133.585 244.104 134.185 243.528 134.905 243.112C135.625 242.68 136.425 242.464 137.305 242.464V246.808H136.177C135.153 246.808 134.385 247.032 133.873 247.48C133.361 247.912 133.105 248.68 133.105 249.784V256H129.001V242.608H133.105V244.84ZM146.97 252.52V256H144.882C143.394 256 142.234 255.64 141.402 254.92C140.57 254.184 140.154 252.992 140.154 251.344V246.016H138.522V242.608H140.154V239.344H144.258V242.608H146.946V246.016H144.258V251.392C144.258 251.792 144.354 252.08 144.546 252.256C144.738 252.432 145.058 252.52 145.506 252.52H146.97ZM151.56 241.216C150.84 241.216 150.248 241.008 149.784 240.592C149.336 240.16 149.112 239.632 149.112 239.008C149.112 238.368 149.336 237.84 149.784 237.424C150.248 236.992 150.84 236.776 151.56 236.776C152.264 236.776 152.84 236.992 153.288 237.424C153.752 237.84 153.984 238.368 153.984 239.008C153.984 239.632 153.752 240.16 153.288 240.592C152.84 241.008 152.264 241.216 151.56 241.216ZM153.6 242.608V256H149.496V242.608H153.6ZM162.263 256.192C161.095 256.192 160.055 255.992 159.143 255.592C158.231 255.192 157.511 254.648 156.983 253.96C156.455 253.256 156.159 252.472 156.095 251.608H160.151C160.199 252.072 160.415 252.448 160.799 252.736C161.183 253.024 161.655 253.168 162.215 253.168C162.727 253.168 163.119 253.072 163.391 252.88C163.679 252.672 163.823 252.408 163.823 252.088C163.823 251.704 163.623 251.424 163.223 251.248C162.823 251.056 162.175 250.848 161.279 250.624C160.319 250.4 159.519 250.168 158.879 249.928C158.239 249.672 157.687 249.28 157.223 248.752C156.759 248.208 156.527 247.48 156.527 246.568C156.527 245.8 156.735 245.104 157.151 244.48C157.583 243.84 158.207 243.336 159.023 242.968C159.855 242.6 160.839 242.416 161.975 242.416C163.655 242.416 164.975 242.832 165.935 243.664C166.911 244.496 167.471 245.6 167.615 246.976H163.823C163.759 246.512 163.551 246.144 163.199 245.872C162.863 245.6 162.415 245.464 161.855 245.464C161.375 245.464 161.007 245.56 160.751 245.752C160.495 245.928 160.367 246.176 160.367 246.496C160.367 246.88 160.567 247.168 160.967 247.36C161.383 247.552 162.023 247.744 162.887 247.936C163.879 248.192 164.687 248.448 165.311 248.704C165.935 248.944 166.479 249.344 166.943 249.904C167.423 250.448 167.671 251.184 167.687 252.112C167.687 252.896 167.463 253.6 167.015 254.224C166.583 254.832 165.951 255.312 165.119 255.664C164.303 256.016 163.351 256.192 162.263 256.192ZM183.061 249.088C183.061 249.472 183.037 249.872 182.989 250.288H173.701C173.765 251.12 174.029 251.76 174.493 252.208C174.973 252.64 175.557 252.856 176.245 252.856C177.269 252.856 177.981 252.424 178.381 251.56H182.749C182.525 252.44 182.117 253.232 181.525 253.936C180.949 254.64 180.221 255.192 179.341 255.592C178.461 255.992 177.477 256.192 176.389 256.192C175.077 256.192 173.909 255.912 172.885 255.352C171.861 254.792 171.061 253.992 170.485 252.952C169.909 251.912 169.621 250.696 169.621 249.304C169.621 247.912 169.901 246.696 170.461 245.656C171.037 244.616 171.837 243.816 172.861 243.256C173.885 242.696 175.061 242.416 176.389 242.416C177.685 242.416 178.837 242.688 179.845 243.232C180.853 243.776 181.637 244.552 182.197 245.56C182.773 246.568 183.061 247.744 183.061 249.088ZM178.861 248.008C178.861 247.304 178.621 246.744 178.141 246.328C177.661 245.912 177.061 245.704 176.341 245.704C175.653 245.704 175.069 245.904 174.589 246.304C174.125 246.704 173.837 247.272 173.725 248.008H178.861ZM189.57 244.84C190.05 244.104 190.65 243.528 191.37 243.112C192.09 242.68 192.89 242.464 193.77 242.464V246.808H192.642C191.618 246.808 190.85 247.032 190.338 247.48C189.826 247.912 189.57 248.68 189.57 249.784V256H185.466V242.608H189.57V244.84Z" fill="#EFDD8A"/>
<path opacity="0.25" fill-rule="evenodd" clip-rule="evenodd" d="M428.745 8.67753L679.544 54.7769L675.205 78.3815L698.809 82.7202L694.29 107.308L670.685 102.97L666.347 126.574L642.742 122.235L638.403 145.84L387.605 99.7405L391.944 76.136L396.282 52.5314L372.678 48.1926L377.197 23.6046L400.802 27.9433L424.406 32.2821L428.745 8.67753Z" fill="#F8DF4B"/>
<path d="M453.879 68.226L447.695 67.0893L446.166 69.834L441.94 69.0574L450.982 53.589L455.656 54.4481L458.605 72.1205L454.333 71.3352L453.879 68.226ZM453.414 64.9193L452.475 58.4755L449.33 64.1687L453.414 64.9193ZM466.781 61.9347C467.287 61.3933 467.921 60.9974 468.683 60.747C469.445 60.4966 470.29 60.4567 471.218 60.6273C472.304 60.8269 473.237 61.2831 474.017 61.9958C474.797 62.7086 475.345 63.6227 475.66 64.7381C475.991 65.8564 476.033 67.0922 475.784 68.4456C475.535 69.7989 475.056 70.9471 474.346 71.8903C473.654 72.8206 472.815 73.488 471.83 73.8925C470.848 74.2813 469.813 74.3759 468.728 74.1764C467.815 74.0086 467.039 73.6708 466.401 73.163C465.778 72.658 465.324 72.0704 465.041 71.4001L463.548 79.5201L459.512 78.7781L463.087 59.328L467.123 60.0699L466.781 61.9347ZM471.677 67.6906C471.862 66.6835 471.723 65.8446 471.261 65.174C470.817 64.4905 470.186 64.0735 469.368 63.9231C468.565 63.7756 467.827 63.9409 467.154 64.419C466.496 64.9 466.074 65.6441 465.889 66.6512C465.704 67.6584 465.834 68.5037 466.277 69.1872C466.737 69.8735 467.368 70.2905 468.17 70.438C468.973 70.5855 469.711 70.4202 470.384 69.9421C471.061 69.4483 471.492 68.6978 471.677 67.6906ZM483.037 64.9228C483.544 64.3814 484.178 63.9855 484.939 63.7351C485.701 63.4847 486.546 63.4448 487.475 63.6155C488.561 63.8151 489.494 64.2712 490.274 64.984C491.054 65.6968 491.601 66.6108 491.917 67.7263C492.248 68.8446 492.289 70.0804 492.041 71.4337C491.792 72.7871 491.312 73.9353 490.602 74.8784C489.911 75.8088 489.072 76.4762 488.087 76.8807C487.104 77.2695 486.07 77.3641 484.984 77.1645C484.072 76.9967 483.296 76.6589 482.657 76.1511C482.034 75.6462 481.581 75.0585 481.298 74.3882L479.805 82.5082L475.769 81.7663L479.344 62.3161L483.38 63.0581L483.037 64.9228ZM487.933 70.6788C488.119 69.6717 487.98 68.8328 487.518 68.1621C487.074 67.4787 486.443 67.0617 485.625 66.9113C484.822 66.7638 484.084 66.9291 483.41 67.4072C482.753 67.8882 482.331 68.6323 482.146 69.6394C481.961 70.6465 482.09 71.4918 482.534 72.1753C482.993 72.8617 483.624 73.2786 484.427 73.4262C485.23 73.5737 485.968 73.4084 486.641 72.9303C487.318 72.4364 487.748 71.6859 487.933 70.6788ZM507.671 64.0092C509.418 64.3302 510.881 64.957 512.06 65.8895C513.239 66.822 514.066 67.9827 514.543 69.3718C515.039 70.748 515.136 72.2544 514.835 73.891C514.537 75.5119 513.911 76.8852 512.955 78.0111C512.016 79.1398 510.821 79.9289 509.372 80.3783C507.939 80.8307 506.357 80.8977 504.626 80.5796L498.418 79.4385L501.463 62.8681L507.671 64.0092ZM505.008 77.0384C506.535 77.3189 507.799 77.1203 508.802 76.4425C509.805 75.7646 510.447 74.6625 510.728 73.1361C511.008 71.6097 510.802 70.3435 510.108 69.3375C509.415 68.3315 508.305 67.6883 506.778 67.4077L504.866 67.0563L503.096 76.6869L505.008 77.0384ZM529.469 78.1183C529.4 78.496 529.304 78.8851 529.182 79.2855L520.047 77.6064C519.959 78.4363 520.103 79.1135 520.479 79.638C520.873 80.1496 521.408 80.4676 522.085 80.592C523.092 80.7771 523.87 80.481 524.42 79.7035L528.716 80.4932C528.336 81.3182 527.792 82.0234 527.082 82.6088C526.389 83.197 525.573 83.6083 524.635 83.8426C523.697 84.077 522.693 84.0958 521.623 83.8991C520.333 83.6619 519.235 83.1754 518.329 82.4395C517.423 81.7036 516.781 80.7721 516.402 79.6451C516.024 78.5181 515.96 77.2701 516.212 75.901C516.463 74.532 516.959 73.3866 517.697 72.465C518.452 71.5463 519.383 70.9041 520.492 70.5384C521.6 70.1728 522.807 70.11 524.114 70.3501C525.388 70.5844 526.472 71.0601 527.365 71.7774C528.258 72.4947 528.889 73.3996 529.257 74.4923C529.642 75.5878 529.712 76.7965 529.469 78.1183ZM525.534 76.2968C525.661 75.6044 525.526 75.0103 525.129 74.5143C524.733 74.0184 524.18 73.7054 523.472 73.5752C522.795 73.4508 522.185 73.542 521.64 73.8486C521.112 74.1581 520.726 74.6647 520.483 75.3683L525.534 76.2968ZM537.204 82.6635L541.787 73.7939L546.083 74.5836L538.989 86.8958L534.008 85.9803L531.755 71.9499L536.075 72.7439L537.204 82.6635ZM559.263 83.5947C559.193 83.9723 559.097 84.3614 558.975 84.7619L549.84 83.0828C549.753 83.9126 549.897 84.5898 550.272 85.1143C550.666 85.626 551.201 85.944 551.878 86.0684C552.885 86.2535 553.663 85.9573 554.213 85.1799L558.509 85.9695C558.13 86.7945 557.585 87.4997 556.876 88.0851C556.182 88.6734 555.366 89.0847 554.428 89.319C553.49 89.5533 552.487 89.5721 551.416 89.3754C550.126 89.1382 549.028 88.6517 548.122 87.9158C547.216 87.1799 546.574 86.2485 546.195 85.1215C545.817 83.9945 545.754 82.7464 546.005 81.3774C546.257 80.0083 546.752 78.863 547.491 77.9413C548.245 77.0226 549.177 76.3804 550.285 76.0148C551.394 75.6491 552.601 75.5863 553.907 75.8264C555.182 76.0607 556.265 76.5365 557.158 77.2537C558.052 77.971 558.682 78.876 559.051 79.9686C559.435 81.0641 559.506 82.2728 559.263 83.5947ZM555.327 81.7732C555.455 81.0808 555.32 80.4866 554.923 79.9907C554.526 79.4948 553.973 79.1817 553.265 79.0516C552.589 78.9272 551.978 79.0183 551.434 79.3249C550.905 79.6345 550.519 80.141 550.276 80.8447L555.327 81.7732ZM567.626 74.1021L564.415 91.5695L560.379 90.8276L563.589 73.3602L567.626 74.1021ZM573.537 93.4414C572.247 93.2042 571.133 92.7148 570.195 91.9731C569.274 91.2343 568.608 90.2986 568.198 89.1658C567.804 88.0359 567.733 86.7864 567.984 85.4174C568.233 84.064 568.75 82.9309 569.536 82.0179C570.325 81.0893 571.29 80.445 572.429 80.0851C573.569 79.7252 574.784 79.6639 576.075 79.9011C577.365 80.1383 578.479 80.6277 579.416 81.3694C580.354 82.1111 581.026 83.0562 581.433 84.2047C581.843 85.3375 581.924 86.5805 581.675 87.9338C581.426 89.2872 580.899 90.4267 580.095 91.3525C579.309 92.2655 578.338 92.9004 577.182 93.2574C576.043 93.6173 574.827 93.6786 573.537 93.4414ZM574.179 89.948C574.95 90.0897 575.655 89.9265 576.295 89.4583C576.95 88.993 577.374 88.2332 577.568 87.1789C577.761 86.1246 577.643 85.265 577.212 84.6001C576.797 83.9381 576.204 83.5363 575.433 83.3946C574.646 83.2499 573.941 83.4132 573.317 83.8842C572.697 84.3395 572.288 85.1022 572.091 86.1723C571.898 87.2266 572 88.0833 572.4 88.7424C572.815 89.4044 573.408 89.8062 574.179 89.948ZM588.956 84.3918C589.463 83.8504 590.097 83.4545 590.858 83.2041C591.62 82.9537 592.465 82.9139 593.394 83.0845C594.48 83.2841 595.413 83.7403 596.193 84.453C596.973 85.1658 597.52 86.0799 597.836 87.1953C598.167 88.3136 598.208 89.5494 597.96 90.9028C597.711 92.2561 597.231 93.4043 596.521 94.3475C595.83 95.2778 594.991 95.9452 594.006 96.3497C593.023 96.7385 591.989 96.8331 590.903 96.6335C589.991 96.4658 589.215 96.128 588.576 95.6201C587.953 95.1152 587.5 94.5276 587.217 93.8573L585.724 101.977L581.688 101.235L585.263 81.7852L589.299 82.5271L588.956 84.3918ZM593.852 90.1478C594.038 89.1407 593.899 88.3018 593.437 87.6312C592.993 86.9477 592.362 86.5307 591.544 86.3803C590.741 86.2328 590.003 86.3981 589.329 86.8762C588.672 87.3572 588.25 88.1013 588.065 89.1084C587.88 90.1155 588.009 90.9609 588.453 91.6443C588.912 92.3307 589.543 92.7477 590.346 92.8952C591.149 93.0427 591.887 92.8774 592.56 92.3993C593.237 91.9054 593.667 91.1549 593.852 90.1478ZM612.764 93.4287C612.695 93.8064 612.599 94.1955 612.476 94.596L603.341 92.9168C603.254 93.7467 603.398 94.4239 603.773 94.9484C604.167 95.46 604.702 95.7781 605.379 95.9024C606.386 96.0876 607.165 95.7914 607.714 95.0139L612.01 95.8036C611.631 96.6286 611.086 97.3338 610.377 97.9192C609.683 98.5074 608.867 98.9187 607.93 99.1531C606.992 99.3874 605.988 99.4062 604.918 99.2095C603.627 98.9723 602.529 98.4858 601.623 97.7499C600.717 97.014 600.075 96.0826 599.697 94.9556C599.318 93.8286 599.255 92.5805 599.506 91.2115C599.758 89.8424 600.253 88.6971 600.992 87.7754C601.747 86.8567 602.678 86.2145 603.786 85.8489C604.895 85.4832 606.102 85.4204 607.408 85.6605C608.683 85.8948 609.767 86.3706 610.66 87.0878C611.553 87.8051 612.184 88.71 612.552 89.8027C612.936 90.8982 613.007 92.1069 612.764 93.4287ZM608.828 91.6072C608.956 90.9148 608.821 90.3207 608.424 89.8248C608.027 89.3288 607.475 89.0158 606.767 88.8856C606.09 88.7613 605.479 88.8524 604.935 89.159C604.406 89.4686 604.02 89.9751 603.777 90.6788L608.828 91.6072ZM619.934 90.4275C620.539 89.7904 621.233 89.3323 622.017 89.0533C622.803 88.7586 623.629 88.6908 624.494 88.8499L623.709 93.1223L622.599 92.9184C621.592 92.7333 620.796 92.8147 620.212 93.1628C619.63 93.4951 619.24 94.2042 619.04 95.29L617.916 101.404L613.88 100.662L616.301 87.4903L620.337 88.2322L619.934 90.4275Z" fill="#EFDD8A"/>
</svg>
